<svg width="61" height="61" viewBox="0 0 61 61" fill="none" xmlns="http://www.w3.org/2000/svg">
<path d="M28.1257 7.88992C28.7101 5.71922 31.7899 5.71922 32.3743 7.88992L36.3377 22.6099C36.5415 23.3671 37.1329 23.9585 37.8901 24.1623L52.6101 28.1257C54.7808 28.7101 54.7808 31.7899 52.6101 32.3743L37.8901 36.3377C37.1329 36.5415 36.5415 37.1329 36.3377 37.8901L32.3743 52.6101C31.7899 54.7808 28.7101 54.7808 28.1257 52.6101L24.1623 37.8901C23.9585 37.1329 23.3671 36.5415 22.6099 36.3377L7.88992 32.3743C5.71922 31.7899 5.71922 28.7101 7.88992 28.1257L22.6099 24.1623C23.3671 23.9585 23.9585 23.3671 24.1623 22.6099L28.1257 7.88992Z" fill="#32D792"/>
</svg>
