<svg width="596" height="211" viewBox="0 0 596 211" fill="none" xmlns="http://www.w3.org/2000/svg">
<path d="M506.305 12.722C512.67 0.744549 527.7 -3.56676 539.446 3.21523C550.908 9.83246 554.834 24.4884 548.217 35.9496L543.882 43.4574C545.663 43.8189 547.416 44.4696 549.076 45.4281C557.119 50.0714 560.006 60.2132 555.735 68.3636C579.587 80.1011 596 104.646 596 133.025V138.975C596 178.753 563.754 211 523.976 211H72.0244C32.2464 211 0 178.753 0 138.975V133.025C4.12325e-05 93.2468 32.2464 61.0005 72.0244 61.0004H480.646L506.305 12.722Z" fill="#0A86FF"/>
<path d="M552.439 35.651C552.724 36.3234 553.382 36.7622 554.113 36.7666L568.136 36.8497L555.58 43.0958C554.967 43.4009 554.579 44.0202 554.565 44.6975L554.568 44.8342L555.401 60.2203L549.38 46.0369L549.322 45.913C549.012 45.3107 548.391 44.9255 547.706 44.9214L533.682 44.8375L546.239 38.5922C546.893 38.2668 547.291 37.5832 547.251 36.8537L546.416 21.466L552.439 35.651Z" fill="#F5F8F9"/>
<path d="M505.977 34.7334C508.974 34.7336 511.403 37.163 511.403 40.1602V59.6396C511.403 62.637 508.974 65.0672 505.977 65.0674C502.979 65.0674 500.549 62.6371 500.549 59.6396V40.1602C500.549 37.1629 502.979 34.7334 505.977 34.7334Z" fill="#F5F8F9"/>
<path d="M526.629 34.7334C529.626 34.7336 532.055 37.163 532.056 40.1602V59.6396C532.056 62.637 529.626 65.0672 526.629 65.0674C523.631 65.0674 521.201 62.6371 521.201 59.6396V40.1602C521.201 37.1629 523.632 34.7334 526.629 34.7334Z" fill="#F5F8F9"/>
</svg>
