<svg width="213" height="138" viewBox="0 0 213 138" fill="none" xmlns="http://www.w3.org/2000/svg">
<g id="bookButton_machinedetails_frame">
<g id="Property 1=Variant2">
<path id="Vector" d="M172 60H39C17.4609 60 0 77.4609 0 99C0 120.539 17.4609 138 39 138H172C193.539 138 211 120.539 211 99C211 77.4609 193.539 60 172 60Z" fill="#006CD6"/>
<path id="Vector_2" d="M167.741 10.563C172.524 1.51706 183.862 -1.74846 192.723 3.36781C201.357 8.3523 204.315 19.3917 199.33 28.0251L169.541 79.6224C164.948 87.5772 154.853 90.4228 146.782 86.0375C138.627 81.6066 135.555 71.4387 139.893 63.2338L167.741 10.563Z" fill="#006CD6"/>
<path id="Vector_3" d="M206.237 51.9371C209.829 45.7155 207.698 37.76 201.476 34.168C195.255 30.576 187.299 32.7077 183.707 38.9292L147.977 100.816C144.385 107.038 146.516 114.993 152.738 118.585C158.959 122.177 166.915 120.046 170.507 113.824L206.237 51.9371Z" fill="#006CD6"/>
<path id="Vector_4" d="M167.185 41.0927C167.185 38.8324 165.353 37 163.093 37C160.832 37 159 38.8324 159 41.0927V55.7817C159 58.042 160.832 59.8744 163.093 59.8744C165.353 59.8744 167.185 58.042 167.185 55.7817V41.0927Z" fill="#F5F8F9"/>
<path id="Vector_5" d="M186.139 41.5146C186.139 39.2543 184.306 37.4219 182.046 37.4219C179.786 37.4219 177.953 39.2543 177.953 41.5146V56.2035C177.953 58.4639 179.786 60.2963 182.046 60.2963C184.306 60.2963 186.139 58.4639 186.139 56.2035V41.5146Z" fill="#F5F8F9"/>
<path id="Vector_6" d="M197.867 26.1667C198.122 26.717 198.68 27.0618 199.286 27.0436L211.128 26.689L200.338 31.5815C199.821 31.8162 199.481 32.3193 199.452 32.8807L199.45 32.9944L199.712 44.7077L194.793 34.0741L194.742 33.9727C194.468 33.4815 193.942 33.1792 193.374 33.1962L181.531 33.551L192.322 28.6584C192.874 28.408 193.224 27.8525 193.21 27.2464L192.947 15.5314L197.867 26.1667Z" fill="#F5F8F9" stroke="#006CD6" stroke-width="1.68194"/>
<path id="Book Now" d="M43.7743 99.29C44.8943 99.49 45.8443 100.08 46.6243 101.06C47.4043 102.04 47.7943 103.15 47.7943 104.39C47.7943 105.45 47.5143 106.41 46.9543 107.27C46.4143 108.11 45.6243 108.78 44.5843 109.28C43.5443 109.76 42.3343 110 40.9543 110H32.6143V89.15H40.5643C41.9843 89.15 43.2043 89.39 44.2243 89.87C45.2443 90.35 46.0143 91 46.5343 91.82C47.0543 92.62 47.3143 93.52 47.3143 94.52C47.3143 95.72 46.9943 96.72 46.3543 97.52C45.7143 98.32 44.8543 98.91 43.7743 99.29ZM36.0343 98H40.2643C41.3843 98 42.2543 97.73 42.8743 97.19C43.5143 96.65 43.8343 95.9 43.8343 94.94C43.8343 93.96 43.5143 93.2 42.8743 92.66C42.2543 92.1 41.3843 91.82 40.2643 91.82H36.0343V98ZM40.6543 107.33C41.8143 107.33 42.7243 107.04 43.3843 106.46C44.0443 105.88 44.3743 105.07 44.3743 104.03C44.3743 103.01 44.0243 102.2 43.3243 101.6C42.6243 100.98 41.6943 100.67 40.5343 100.67H36.0343V107.33H40.6543ZM58.6807 110.27C57.1207 110.27 55.7107 109.92 54.4507 109.22C53.1907 108.5 52.2007 107.5 51.4807 106.22C50.7607 104.92 50.4007 103.42 50.4007 101.72C50.4007 100.04 50.7707 98.55 51.5107 97.25C52.2507 95.95 53.2607 94.95 54.5407 94.25C55.8207 93.55 57.2507 93.2 58.8307 93.2C60.4107 93.2 61.8407 93.55 63.1207 94.25C64.4007 94.95 65.4107 95.95 66.1507 97.25C66.8907 98.55 67.2607 100.04 67.2607 101.72C67.2607 103.4 66.8807 104.89 66.1207 106.19C65.3607 107.49 64.3207 108.5 63.0007 109.22C61.7007 109.92 60.2607 110.27 58.6807 110.27ZM58.6807 107.39C59.5607 107.39 60.3807 107.17 61.1407 106.73C61.9207 106.29 62.5507 105.65 63.0307 104.81C63.5107 103.95 63.7507 102.92 63.7507 101.72C63.7507 100.52 63.5207 99.5 63.0607 98.66C62.6007 97.8 61.9907 97.16 61.2307 96.74C60.4707 96.3 59.6507 96.08 58.7707 96.08C57.8907 96.08 57.0807 96.3 56.3407 96.74C55.6007 97.16 55.0007 97.8 54.5407 98.66C54.1007 99.5 53.8807 100.52 53.8807 101.72C53.8807 102.92 54.0907 103.95 54.5107 104.81C54.9507 105.67 55.5307 106.32 56.2507 106.76C56.9907 107.18 57.8007 107.39 58.6807 107.39ZM77.8116 110.27C76.2516 110.27 74.8416 109.92 73.5816 109.22C72.3216 108.5 71.3316 107.5 70.6116 106.22C69.8916 104.92 69.5316 103.42 69.5316 101.72C69.5316 100.04 69.9016 98.55 70.6416 97.25C71.3816 95.95 72.3916 94.95 73.6716 94.25C74.9516 93.55 76.3816 93.2 77.9616 93.2C79.5416 93.2 80.9716 93.55 82.2516 94.25C83.5316 94.95 84.5416 95.95 85.2816 97.25C86.0216 98.55 86.3916 100.04 86.3916 101.72C86.3916 103.4 86.0116 104.89 85.2516 106.19C84.4916 107.49 83.4516 108.5 82.1316 109.22C80.8316 109.92 79.3916 110.27 77.8116 110.27ZM77.8116 107.39C78.6916 107.39 79.5116 107.17 80.2716 106.73C81.0516 106.29 81.6816 105.65 82.1616 104.81C82.6416 103.95 82.8816 102.92 82.8816 101.72C82.8816 100.52 82.6516 99.5 82.1916 98.66C81.7316 97.8 81.1216 97.16 80.3616 96.74C79.6016 96.3 78.7816 96.08 77.9016 96.08C77.0216 96.08 76.2116 96.3 75.4716 96.74C74.7316 97.16 74.1316 97.8 73.6716 98.66C73.2316 99.5 73.0116 100.52 73.0116 101.72C73.0116 102.92 73.2216 103.95 73.6416 104.81C74.0816 105.67 74.6616 106.32 75.3816 106.76C76.1216 107.18 76.9316 107.39 77.8116 107.39ZM96.3125 101.75L103.932 110H99.3125L93.1925 102.89V110H89.7725V87.8H93.1925V100.7L99.1925 93.47H103.932L96.3125 101.75ZM132.508 110H129.088L118.798 94.43V110H115.378V89.12H118.798L129.088 104.66V89.12H132.508V110ZM144.169 110.27C142.609 110.27 141.199 109.92 139.939 109.22C138.679 108.5 137.689 107.5 136.969 106.22C136.249 104.92 135.889 103.42 135.889 101.72C135.889 100.04 136.259 98.55 136.999 97.25C137.739 95.95 138.749 94.95 140.029 94.25C141.309 93.55 142.739 93.2 144.319 93.2C145.899 93.2 147.329 93.55 148.609 94.25C149.889 94.95 150.899 95.95 151.639 97.25C152.379 98.55 152.749 100.04 152.749 101.72C152.749 103.4 152.369 104.89 151.609 106.19C150.849 107.49 149.809 108.5 148.489 109.22C147.189 109.92 145.749 110.27 144.169 110.27ZM144.169 107.39C145.049 107.39 145.869 107.17 146.629 106.73C147.409 106.29 148.039 105.65 148.519 104.81C148.999 103.95 149.239 102.92 149.239 101.72C149.239 100.52 149.009 99.5 148.549 98.66C148.089 97.8 147.479 97.16 146.719 96.74C145.959 96.3 145.139 96.08 144.259 96.08C143.379 96.08 142.569 96.3 141.829 96.74C141.089 97.16 140.489 97.8 140.029 98.66C139.589 99.5 139.369 100.52 139.369 101.72C139.369 102.92 139.579 103.95 139.999 104.81C140.439 105.67 141.019 106.32 141.739 106.76C142.479 107.18 143.289 107.39 144.169 107.39ZM178.33 93.47L173.2 110H169.6L166.27 97.79L162.94 110H159.34L154.18 93.47H157.66L161.11 106.76L164.62 93.47H168.19L171.55 106.7L174.97 93.47H178.33Z" fill="#F5F8F9"/>
</g>
</g>
</svg>
