<svg width="277" height="139" viewBox="0 0 277 139" fill="none" xmlns="http://www.w3.org/2000/svg">
<g id="LoginButton_machinedetails_frame">
<g id="Property 1=Default">
<path id="Vector" d="M236 61H39C17.4609 61 0 78.4609 0 100C0 121.539 17.4609 139 39 139H236C257.539 139 275 121.539 275 100C275 78.4609 257.539 61 236 61Z" fill="#0A86FF"/>
<path id="Vector_2" d="M231.741 11.563C236.524 2.51699 247.862 -0.748521 256.723 4.36774C265.357 9.35223 268.315 20.3917 263.33 29.0251L233.541 80.6224C228.948 88.5772 218.853 91.4228 210.782 87.0375C202.626 82.6066 199.555 72.4387 203.893 64.2338L231.741 11.563Z" fill="#0A86FF"/>
<path id="Vector_3" d="M270.237 52.9371C273.829 46.7156 271.698 38.76 265.476 35.168C259.255 31.576 251.299 33.7077 247.707 39.9292L211.977 101.816C208.385 108.038 210.516 115.993 216.738 119.585C222.959 123.177 230.915 121.046 234.507 114.824L270.237 52.9371Z" fill="#0A86FF"/>
<path id="Vector_4" d="M231.185 42.0927C231.185 39.8324 229.353 38 227.093 38C224.832 38 223 39.8324 223 42.0927V56.7817C223 59.042 224.832 60.8744 227.093 60.8744C229.353 60.8744 231.185 59.042 231.185 56.7817V42.0927Z" fill="#F5F8F9"/>
<path id="Vector_5" d="M250.139 42.5146C250.139 40.2543 248.306 38.4219 246.046 38.4219C243.786 38.4219 241.953 40.2543 241.953 42.5146V57.2035C241.953 59.4639 243.786 61.2963 246.046 61.2963C248.306 61.2963 250.139 59.4639 250.139 57.2035V42.5146Z" fill="#F5F8F9"/>
<path id="Vector_6" d="M261.867 27.1667C262.122 27.717 262.68 28.0618 263.286 28.0436L275.128 27.689L264.338 32.5815C263.821 32.8162 263.481 33.3193 263.452 33.8807L263.45 33.9944L263.712 45.7077L258.793 35.0741L258.742 34.9727C258.468 34.4815 257.942 34.1792 257.374 34.1962L245.531 34.551L256.322 29.6584C256.874 29.408 257.224 28.8525 257.21 28.2464L256.947 16.5314L261.867 27.1667Z" fill="#F5F8F9" stroke="#0A86FF" stroke-width="1.68194"/>
<path id="Login to book" d="M41.8341 108.89H48.8841V111.5H38.4141V90.65H41.8341V108.89ZM58.9141 111.77C57.3541 111.77 55.9441 111.42 54.6841 110.72C53.4241 110 52.4341 109 51.7141 107.72C50.9941 106.42 50.6341 104.92 50.6341 103.22C50.6341 101.54 51.0041 100.05 51.7441 98.75C52.4841 97.45 53.4941 96.45 54.7741 95.75C56.0541 95.05 57.4841 94.7 59.0641 94.7C60.6441 94.7 62.0741 95.05 63.3541 95.75C64.6341 96.45 65.6441 97.45 66.3841 98.75C67.1241 100.05 67.4941 101.54 67.4941 103.22C67.4941 104.9 67.1141 106.39 66.3541 107.69C65.5941 108.99 64.5541 110 63.2341 110.72C61.9341 111.42 60.4941 111.77 58.9141 111.77ZM58.9141 108.89C59.7941 108.89 60.6141 108.67 61.3741 108.23C62.1541 107.79 62.7841 107.15 63.2641 106.31C63.7441 105.45 63.9841 104.42 63.9841 103.22C63.9841 102.02 63.7541 101 63.2941 100.16C62.8341 99.3 62.2241 98.66 61.4641 98.24C60.7041 97.8 59.8841 97.58 59.0041 97.58C58.1241 97.58 57.3141 97.8 56.5741 98.24C55.8341 98.66 55.2341 99.3 54.7741 100.16C54.3341 101 54.1141 102.02 54.1141 103.22C54.1141 104.42 54.3241 105.45 54.7441 106.31C55.1841 107.17 55.7641 107.82 56.4841 108.26C57.2241 108.68 58.0341 108.89 58.9141 108.89ZM77.535 94.7C78.815 94.7 79.945 94.96 80.925 95.48C81.925 95.98 82.705 96.61 83.265 97.37V94.97H86.715V111.77C86.715 113.29 86.395 114.64 85.755 115.82C85.115 117.02 84.185 117.96 82.965 118.64C81.765 119.32 80.325 119.66 78.645 119.66C76.405 119.66 74.545 119.13 73.065 118.07C71.585 117.03 70.745 115.61 70.545 113.81H73.935C74.195 114.67 74.745 115.36 75.585 115.88C76.445 116.42 77.465 116.69 78.645 116.69C80.025 116.69 81.135 116.27 81.975 115.43C82.835 114.59 83.265 113.37 83.265 111.77V109.01C82.685 109.79 81.895 110.45 80.895 110.99C79.915 111.51 78.795 111.77 77.535 111.77C76.095 111.77 74.775 111.41 73.575 110.69C72.395 109.95 71.455 108.93 70.755 107.63C70.075 106.31 69.735 104.82 69.735 103.16C69.735 101.5 70.075 100.03 70.755 98.75C71.455 97.47 72.395 96.48 73.575 95.78C74.775 95.06 76.095 94.7 77.535 94.7ZM83.265 103.22C83.265 102.08 83.025 101.09 82.545 100.25C82.085 99.41 81.475 98.77 80.715 98.33C79.955 97.89 79.135 97.67 78.255 97.67C77.375 97.67 76.555 97.89 75.795 98.33C75.035 98.75 74.415 99.38 73.935 100.22C73.475 101.04 73.245 102.02 73.245 103.16C73.245 104.3 73.475 105.3 73.935 106.16C74.415 107.02 75.035 107.68 75.795 108.14C76.575 108.58 77.395 108.8 78.255 108.8C79.135 108.8 79.955 108.58 80.715 108.14C81.475 107.7 82.085 107.06 82.545 106.22C83.025 105.36 83.265 104.36 83.265 103.22ZM92.947 92.78C92.327 92.78 91.807 92.57 91.387 92.15C90.967 91.73 90.757 91.21 90.757 90.59C90.757 89.97 90.967 89.45 91.387 89.03C91.807 88.61 92.327 88.4 92.947 88.4C93.547 88.4 94.057 88.61 94.477 89.03C94.897 89.45 95.107 89.97 95.107 90.59C95.107 91.21 94.897 91.73 94.477 92.15C94.057 92.57 93.547 92.78 92.947 92.78ZM94.627 94.97V111.5H91.207V94.97H94.627ZM107.457 94.7C108.757 94.7 109.917 94.97 110.937 95.51C111.977 96.05 112.787 96.85 113.367 97.91C113.947 98.97 114.237 100.25 114.237 101.75V111.5H110.847V102.26C110.847 100.78 110.477 99.65 109.737 98.87C108.997 98.07 107.987 97.67 106.707 97.67C105.427 97.67 104.407 98.07 103.647 98.87C102.907 99.65 102.537 100.78 102.537 102.26V111.5H99.1172V94.97H102.537V96.86C103.097 96.18 103.807 95.65 104.667 95.27C105.547 94.89 106.477 94.7 107.457 94.7ZM131.584 97.76V106.91C131.584 107.53 131.724 107.98 132.004 108.26C132.304 108.52 132.804 108.65 133.504 108.65H135.604V111.5H132.904C131.364 111.5 130.184 111.14 129.364 110.42C128.544 109.7 128.134 108.53 128.134 106.91V97.76H126.184V94.97H128.134V90.86H131.584V94.97H135.604V97.76H131.584ZM145.926 111.77C144.366 111.77 142.956 111.42 141.696 110.72C140.436 110 139.446 109 138.726 107.72C138.006 106.42 137.646 104.92 137.646 103.22C137.646 101.54 138.016 100.05 138.756 98.75C139.496 97.45 140.506 96.45 141.786 95.75C143.066 95.05 144.496 94.7 146.076 94.7C147.656 94.7 149.086 95.05 150.366 95.75C151.646 96.45 152.656 97.45 153.396 98.75C154.136 100.05 154.506 101.54 154.506 103.22C154.506 104.9 154.126 106.39 153.366 107.69C152.606 108.99 151.566 110 150.246 110.72C148.946 111.42 147.506 111.77 145.926 111.77ZM145.926 108.89C146.806 108.89 147.626 108.67 148.386 108.23C149.166 107.79 149.796 107.15 150.276 106.31C150.756 105.45 150.996 104.42 150.996 103.22C150.996 102.02 150.766 101 150.306 100.16C149.846 99.3 149.236 98.66 148.476 98.24C147.716 97.8 146.896 97.58 146.016 97.58C145.136 97.58 144.326 97.8 143.586 98.24C142.846 98.66 142.246 99.3 141.786 100.16C141.346 101 141.126 102.02 141.126 103.22C141.126 104.42 141.336 105.45 141.756 106.31C142.196 107.17 142.776 107.82 143.496 108.26C144.236 108.68 145.046 108.89 145.926 108.89ZM170.301 97.43C170.881 96.63 171.671 95.98 172.671 95.48C173.691 94.96 174.821 94.7 176.061 94.7C177.521 94.7 178.841 95.05 180.021 95.75C181.201 96.45 182.131 97.45 182.811 98.75C183.491 100.03 183.831 101.5 183.831 103.16C183.831 104.82 183.491 106.31 182.811 107.63C182.131 108.93 181.191 109.95 179.991 110.69C178.811 111.41 177.501 111.77 176.061 111.77C174.781 111.77 173.641 111.52 172.641 111.02C171.661 110.52 170.881 109.88 170.301 109.1V111.5H166.881V89.3H170.301V97.43ZM180.351 103.16C180.351 102.02 180.111 101.04 179.631 100.22C179.171 99.38 178.551 98.75 177.771 98.33C177.011 97.89 176.191 97.67 175.311 97.67C174.451 97.67 173.631 97.89 172.851 98.33C172.091 98.77 171.471 99.41 170.991 100.25C170.531 101.09 170.301 102.08 170.301 103.22C170.301 104.36 170.531 105.36 170.991 106.22C171.471 107.06 172.091 107.7 172.851 108.14C173.631 108.58 174.451 108.8 175.311 108.8C176.191 108.8 177.011 108.58 177.771 108.14C178.551 107.68 179.171 107.02 179.631 106.16C180.111 105.3 180.351 104.3 180.351 103.16ZM194.383 111.77C192.823 111.77 191.413 111.42 190.153 110.72C188.893 110 187.903 109 187.183 107.72C186.463 106.42 186.103 104.92 186.103 103.22C186.103 101.54 186.473 100.05 187.213 98.75C187.953 97.45 188.963 96.45 190.243 95.75C191.523 95.05 192.953 94.7 194.533 94.7C196.113 94.7 197.543 95.05 198.823 95.75C200.103 96.45 201.113 97.45 201.853 98.75C202.593 100.05 202.963 101.54 202.963 103.22C202.963 104.9 202.583 106.39 201.823 107.69C201.063 108.99 200.023 110 198.703 110.72C197.403 111.42 195.963 111.77 194.383 111.77ZM194.383 108.89C195.263 108.89 196.083 108.67 196.843 108.23C197.623 107.79 198.253 107.15 198.733 106.31C199.213 105.45 199.453 104.42 199.453 103.22C199.453 102.02 199.223 101 198.763 100.16C198.303 99.3 197.693 98.66 196.933 98.24C196.173 97.8 195.353 97.58 194.473 97.58C193.593 97.58 192.783 97.8 192.043 98.24C191.303 98.66 190.703 99.3 190.243 100.16C189.803 101 189.583 102.02 189.583 103.22C189.583 104.42 189.793 105.45 190.213 106.31C190.653 107.17 191.233 107.82 191.953 108.26C192.693 108.68 193.503 108.89 194.383 108.89ZM213.514 111.77C211.954 111.77 210.544 111.42 209.284 110.72C208.024 110 207.034 109 206.314 107.72C205.594 106.42 205.234 104.92 205.234 103.22C205.234 101.54 205.604 100.05 206.344 98.75C207.084 97.45 208.094 96.45 209.374 95.75C210.654 95.05 212.084 94.7 213.664 94.7C215.244 94.7 216.674 95.05 217.954 95.75C219.234 96.45 220.244 97.45 220.984 98.75C221.724 100.05 222.094 101.54 222.094 103.22C222.094 104.9 221.714 106.39 220.954 107.69C220.194 108.99 219.154 110 217.834 110.72C216.534 111.42 215.094 111.77 213.514 111.77ZM213.514 108.89C214.394 108.89 215.214 108.67 215.974 108.23C216.754 107.79 217.384 107.15 217.864 106.31C218.344 105.45 218.584 104.42 218.584 103.22C218.584 102.02 218.354 101 217.894 100.16C217.434 99.3 216.824 98.66 216.064 98.24C215.304 97.8 214.484 97.58 213.604 97.58C212.724 97.58 211.914 97.8 211.174 98.24C210.434 98.66 209.834 99.3 209.374 100.16C208.934 101 208.714 102.02 208.714 103.22C208.714 104.42 208.924 105.45 209.344 106.31C209.784 107.17 210.364 107.82 211.084 108.26C211.824 108.68 212.634 108.89 213.514 108.89ZM232.015 103.25L239.635 111.5H235.015L228.895 104.39V111.5H225.475V89.3H228.895V102.2L234.895 94.97H239.635L232.015 103.25Z" fill="#F5F8F9"/>
</g>
</g>
</svg>
