<svg preserveAspectRatio="none" width="100%" height="100%" overflow="visible" style="display: block;" viewBox="0 0 56 56" fill="none" xmlns="http://www.w3.org/2000/svg">
<g id="Shalat-Zhuhur">
<g id="Shape">
<path d="M28 4.66667C29.2887 4.66667 30.3333 5.71134 30.3333 7V9.33333C30.3333 10.622 29.2887 11.6667 28 11.6667C26.7113 11.6667 25.6667 10.622 25.6667 9.33333V7C25.6667 5.71134 26.7113 4.66667 28 4.66667Z" fill="var(--fill-0, #4D7187)"/>
<path d="M28 44.3333C29.2887 44.3333 30.3333 45.378 30.3333 46.6667V49C30.3333 50.2887 29.2887 51.3333 28 51.3333C26.7113 51.3333 25.6667 50.2887 25.6667 49V46.6667C25.6667 45.378 26.7113 44.3333 28 44.3333Z" fill="var(--fill-0, #4D7187)"/>
<path d="M49 30.3333C50.2887 30.3333 51.3333 29.2887 51.3333 28C51.3333 26.7113 50.2887 25.6667 49 25.6667H46.6667C45.378 25.6667 44.3333 26.7113 44.3333 28C44.3333 29.2887 45.378 30.3333 46.6667 30.3333H49Z" fill="var(--fill-0, #4D7187)"/>
<path d="M11.6667 28C11.6667 29.2887 10.622 30.3333 9.33333 30.3333H7C5.71134 30.3333 4.66667 29.2887 4.66667 28C4.66667 26.7113 5.71134 25.6667 7 25.6667H9.33333C10.622 25.6667 11.6667 26.7113 11.6667 28Z" fill="var(--fill-0, #4D7187)"/>
<path d="M39.5494 42.8492L41.1993 44.4992C42.1105 45.4104 43.5879 45.4104 44.4992 44.4992C45.4104 43.5879 45.4104 42.1106 44.4992 41.1993L42.8492 39.5494C41.938 38.6382 40.4606 38.6382 39.5494 39.5494C38.6382 40.4606 38.6382 41.938 39.5494 42.8492Z" fill="var(--fill-0, #4D7187)"/>
<path d="M16.4506 16.4506C15.5394 17.3618 14.062 17.3618 13.1508 16.4506L11.5008 14.8007C10.5896 13.8894 10.5896 12.4121 11.5008 11.5008C12.4121 10.5896 13.8894 10.5896 14.8007 11.5008L16.4506 13.1508C17.3618 14.062 17.3618 15.5394 16.4506 16.4506Z" fill="var(--fill-0, #4D7187)"/>
<path d="M11.5008 41.1993C10.5896 42.1106 10.5896 43.5879 11.5008 44.4992C12.4121 45.4104 13.8895 45.4104 14.8007 44.4992L16.4506 42.8492C17.3618 41.938 17.3618 40.4606 16.4506 39.5494C15.5394 38.6382 14.062 38.6382 13.1508 39.5494L11.5008 41.1993Z" fill="var(--fill-0, #4D7187)"/>
<path d="M39.5494 16.4506C38.6382 15.5394 38.6382 14.062 39.5494 13.1508L41.1993 11.5008C42.1106 10.5896 43.5879 10.5896 44.4992 11.5008C45.4104 12.4121 45.4104 13.8895 44.4992 14.8007L42.8492 16.4506C41.938 17.3618 40.4606 17.3618 39.5494 16.4506Z" fill="var(--fill-0, #4D7187)"/>
<path fill-rule="evenodd" clip-rule="evenodd" d="M28 15.1667C20.9123 15.1667 15.1667 20.9123 15.1667 28C15.1667 35.0877 20.9123 40.8333 28 40.8333C35.0877 40.8333 40.8333 35.0877 40.8333 28C40.8333 20.9123 35.0877 15.1667 28 15.1667ZM19.8333 28C19.8333 23.4897 23.4897 19.8333 28 19.8333C32.5103 19.8333 36.1667 23.4897 36.1667 28C36.1667 32.5103 32.5103 36.1667 28 36.1667C23.4897 36.1667 19.8333 32.5103 19.8333 28Z" fill="var(--fill-0, #4D7187)"/>
</g>
</g>
</svg>
