<svg width="56" height="84" viewBox="0 0 56 84" fill="none" xmlns="http://www.w3.org/2000/svg">
<g clip-path="url(#clip0_1382_6022)">
<path d="M38.6921 27.912C38.6921 27.1315 38.0593 26.4987 37.2787 26.4987H29.0637C28.2832 26.4987 27.6504 27.1315 27.6504 27.912V36.127C27.6504 36.9076 28.2832 37.5404 29.0637 37.5404H37.2787C38.0593 37.5404 38.6921 36.9076 38.6921 36.127V27.912ZM37.8971 2.20703C37.1165 2.20703 36.4837 2.8398 36.4837 3.62036V5.21036C36.4837 5.99093 35.851 6.6237 35.0704 6.6237H20.2304C19.4498 6.6237 18.8171 5.99093 18.8171 5.21036V3.62036C18.8171 2.8398 18.1843 2.20703 17.4037 2.20703H15.8137C15.0332 2.20703 14.4004 2.8398 14.4004 3.62036V5.21036C14.4004 5.99093 13.7676 6.6237 12.9871 6.6237H12.1921C9.74081 6.6237 7.79747 8.6112 7.79747 11.0404L7.77539 41.957C7.77539 44.3862 9.74081 46.3737 12.1921 46.3737H43.1087C45.5379 46.3737 47.5254 44.3862 47.5254 41.957V11.0404C47.5254 8.6112 45.5379 6.6237 43.1087 6.6237H42.3137C41.5332 6.6237 40.9004 5.99093 40.9004 5.21036V3.62036C40.9004 2.8398 40.2676 2.20703 39.4871 2.20703H37.8971ZM43.1087 40.5437C43.1087 41.3243 42.476 41.957 41.6954 41.957H13.6054C12.8248 41.957 12.1921 41.3243 12.1921 40.5437V19.0787C12.1921 18.2981 12.8248 17.6654 13.6054 17.6654H41.6954C42.476 17.6654 43.1087 18.2981 43.1087 19.0787V40.5437Z" fill="#1E8DFD"/>
</g>
<path d="M11.709 68.6405C12.2284 68.7225 12.6999 68.9344 13.1235 69.276C13.5608 69.6177 13.9025 70.0414 14.1485 70.547C14.4082 71.0527 14.538 71.5925 14.538 72.1665C14.538 72.8909 14.3535 73.5468 13.9845 74.1345C13.6155 74.7085 13.0757 75.1663 12.365 75.508C11.668 75.836 10.8412 76 9.88454 76H4.55457V61.7116H9.67954C10.6499 61.7116 11.4767 61.8756 12.16 62.2036C12.8434 62.5179 13.3558 62.9484 13.6975 63.4951C14.0392 64.0417 14.21 64.6567 14.21 65.3401C14.21 66.1874 13.9777 66.8912 13.513 67.4516C13.062 67.9982 12.4607 68.3945 11.709 68.6405ZM6.42006 67.882H9.55654C10.4312 67.882 11.1077 67.6771 11.586 67.2671C12.0644 66.8571 12.3035 66.2899 12.3035 65.5656C12.3035 64.8412 12.0644 64.2741 11.586 63.8641C11.1077 63.4541 10.4175 63.2491 9.51554 63.2491H6.42006V67.882ZM9.72054 74.4625C10.6499 74.4625 11.3742 74.2438 11.8935 73.8065C12.4129 73.3692 12.6725 72.761 12.6725 71.982C12.6725 71.1894 12.3992 70.5675 11.8525 70.1165C11.3059 69.6519 10.5747 69.4195 9.65904 69.4195H6.42006V74.4625H9.72054ZM22.0262 76.1845C20.9739 76.1845 20.0172 75.9453 19.1562 75.467C18.3089 74.9887 17.6393 74.3122 17.1473 73.4375C16.6689 72.5492 16.4298 71.5242 16.4298 70.3625C16.4298 69.2145 16.6758 68.2032 17.1678 67.3286C17.6734 66.4402 18.3567 65.7637 19.2177 65.2991C20.0787 64.8207 21.0422 64.5816 22.1082 64.5816C23.1742 64.5816 24.1377 64.8207 24.9987 65.2991C25.8597 65.7637 26.5362 66.4334 27.0282 67.3081C27.5339 68.1827 27.7867 69.2009 27.7867 70.3625C27.7867 71.5242 27.527 72.5492 27.0077 73.4375C26.502 74.3122 25.8119 74.9887 24.9372 75.467C24.0625 75.9453 23.0922 76.1845 22.0262 76.1845ZM22.0262 74.5445C22.6959 74.5445 23.3246 74.3873 23.9122 74.073C24.4999 73.7587 24.9714 73.2872 25.3267 72.6585C25.6957 72.0299 25.8802 71.2645 25.8802 70.3625C25.8802 69.4605 25.7025 68.6952 25.3472 68.0665C24.9919 67.4379 24.5272 66.9732 23.9532 66.6726C23.3792 66.3582 22.7574 66.2011 22.0877 66.2011C21.4044 66.2011 20.7757 66.3582 20.2017 66.6726C19.6414 66.9732 19.1904 67.4379 18.8487 68.0665C18.5071 68.6952 18.3362 69.4605 18.3362 70.3625C18.3362 71.2782 18.5002 72.0504 18.8282 72.679C19.1699 73.3077 19.6209 73.7792 20.1812 74.0935C20.7416 74.3942 21.3566 74.5445 22.0262 74.5445ZM35.1389 76.1845C34.0866 76.1845 33.13 75.9453 32.269 75.467C31.4216 74.9887 30.752 74.3122 30.26 73.4375C29.7816 72.5492 29.5425 71.5242 29.5425 70.3625C29.5425 69.2145 29.7885 68.2032 30.2805 67.3286C30.7861 66.4402 31.4695 65.7637 32.3305 65.2991C33.1915 64.8207 34.1549 64.5816 35.2209 64.5816C36.2869 64.5816 37.2504 64.8207 38.1114 65.2991C38.9724 65.7637 39.6489 66.4334 40.1409 67.3081C40.6466 68.1827 40.8994 69.2009 40.8994 70.3625C40.8994 71.5242 40.6397 72.5492 40.1204 73.4375C39.6147 74.3122 38.9246 74.9887 38.0499 75.467C37.1753 75.9453 36.2049 76.1845 35.1389 76.1845ZM35.1389 74.5445C35.8086 74.5445 36.4373 74.3873 37.0249 74.073C37.6126 73.7587 38.0841 73.2872 38.4394 72.6585C38.8084 72.0299 38.9929 71.2645 38.9929 70.3625C38.9929 69.4605 38.8153 68.6952 38.4599 68.0665C38.1046 67.4379 37.6399 66.9732 37.0659 66.6726C36.4919 66.3582 35.8701 66.2011 35.2004 66.2011C34.5171 66.2011 33.8884 66.3582 33.3145 66.6726C32.7541 66.9732 32.3031 67.4379 31.9615 68.0665C31.6198 68.6952 31.449 69.4605 31.449 70.3625C31.449 71.2782 31.613 72.0504 31.941 72.679C32.2826 73.3077 32.7336 73.7792 33.294 74.0935C33.8543 74.3942 34.4693 74.5445 35.1389 74.5445ZM49.6251 76L45.2177 71.039V76H43.3522V60.8301H45.2177V69.7475L49.5431 64.7661H52.1466L46.8577 70.3625L52.1671 76H49.6251Z" fill="#1E8DFD"/>
<defs>
<clipPath id="clip0_1382_6022">
<rect width="53" height="53" fill="white" transform="translate(1.15039)"/>
</clipPath>
</defs>
</svg>
