<svg width="57" height="84" viewBox="0 0 57 84" fill="none" xmlns="http://www.w3.org/2000/svg">
<path d="M21.875 16.2539L30.7083 16.2539" stroke="#204B66" stroke-width="4.18421" stroke-linecap="round"/>
<path d="M21.875 33.9199L28.5 33.9199" stroke="#204B66" stroke-width="4.18421" stroke-linecap="round"/>
<path d="M21.875 25.0859L35.125 25.0859" stroke="#204B66" stroke-width="4.18421" stroke-linecap="round"/>
<path d="M43.145 40.3864V15.3431C43.145 11.3982 43.145 9.42576 41.9195 8.20023C40.694 6.97471 38.7215 6.97471 34.7766 6.97471H21.5266C17.5817 6.97471 15.6093 6.97471 14.3837 8.20023C13.1582 9.42576 13.1582 11.3982 13.1582 15.3431V37.6589C13.1582 41.6038 13.1582 43.5763 14.3837 44.8018C15.6093 46.0273 17.5816 46.0273 21.5263 46.0273C25.6444 46.0273 29.8994 46.0273 33.2922 46.0273" stroke="#204B66" stroke-width="4.18421" stroke-linecap="round"/>
<path d="M12.9356 61.7116V76H11.0701V61.7116H12.9356ZM21.5884 64.5611C22.9551 64.5611 24.0621 64.9779 24.9094 65.8116C25.7567 66.6316 26.1804 67.8206 26.1804 69.3785V76H24.3354V69.645C24.3354 68.5244 24.0552 67.6702 23.4949 67.0826C22.9346 66.4812 22.1692 66.1806 21.1989 66.1806C20.2149 66.1806 19.4291 66.4881 18.8414 67.1031C18.2674 67.7181 17.9804 68.6132 17.9804 69.7885V76H16.115V64.7661H17.9804V66.3651C18.3494 65.7911 18.8483 65.3469 19.4769 65.0326C20.1193 64.7182 20.8231 64.5611 21.5884 64.5611ZM33.7991 66.3036H31.4417V76H29.5762V66.3036H28.1207V64.7661H29.5762V63.9666C29.5762 62.7092 29.8973 61.7936 30.5397 61.2196C31.1957 60.6319 32.2411 60.3381 33.6761 60.3381V61.8961C32.8561 61.8961 32.2753 62.0601 31.9336 62.3881C31.6057 62.7024 31.4417 63.2286 31.4417 63.9666V64.7661H33.7991V66.3036ZM40.8737 76.1845C39.8213 76.1845 38.8647 75.9453 38.0037 75.467C37.1564 74.9887 36.4867 74.3122 35.9947 73.4375C35.5164 72.5492 35.2772 71.5242 35.2772 70.3625C35.2772 69.2145 35.5232 68.2032 36.0152 67.3286C36.5209 66.4402 37.2042 65.7637 38.0652 65.2991C38.9262 64.8207 39.8897 64.5816 40.9557 64.5816C42.0217 64.5816 42.9852 64.8207 43.8462 65.2991C44.7072 65.7637 45.3836 66.4334 45.8756 67.3081C46.3813 68.1827 46.6341 69.2009 46.6341 70.3625C46.6341 71.5242 46.3745 72.5492 45.8551 73.4375C45.3495 74.3122 44.6593 74.9887 43.7847 75.467C42.91 75.9453 41.9397 76.1845 40.8737 76.1845ZM40.8737 74.5445C41.5433 74.5445 42.172 74.3873 42.7597 74.073C43.3473 73.7587 43.8188 73.2872 44.1742 72.6585C44.5432 72.0299 44.7277 71.2645 44.7277 70.3625C44.7277 69.4605 44.55 68.6952 44.1947 68.0665C43.8393 67.4379 43.3747 66.9732 42.8007 66.6726C42.2267 66.3582 41.6048 66.2011 40.9352 66.2011C40.2518 66.2011 39.6232 66.3582 39.0492 66.6726C38.4889 66.9732 38.0379 67.4379 37.6962 68.0665C37.3545 68.6952 37.1837 69.4605 37.1837 70.3625C37.1837 71.2782 37.3477 72.0504 37.6757 72.679C38.0174 73.3077 38.4684 73.7792 39.0287 74.0935C39.589 74.3942 40.204 74.5445 40.8737 74.5445Z" fill="#204B66"/>
</svg>
