<svg preserveAspectRatio="none" width="100%" height="100%" overflow="visible" style="display: block;" viewBox="0 0 79.7401 118.448" fill="none" xmlns="http://www.w3.org/2000/svg">
<g id="deco_mascot.svg">
<path d="M25.7737 10.7539C31.0276 0.666124 43.6313 -3.00617 53.4814 2.68077C63.0366 8.19749 66.3105 20.4157 60.7938 29.971L35.2085 74.286C30.0803 83.1684 18.7955 86.3267 9.80151 81.3969C0.801472 76.4637 -2.60402 65.2409 2.13687 56.1381L25.7737 10.7539Z" fill="#0A86FF"/>
<path d="M46.6598 38.1455C50.648 31.2378 59.4809 28.871 66.3886 32.8592C73.2963 36.8474 75.663 45.6802 71.6749 52.588L37.8211 111.224C33.833 118.132 25.0001 120.499 18.0924 116.511C11.1847 112.522 8.81794 103.69 12.8061 96.7819L46.6598 38.1455Z" fill="#0A86FF"/>
<path d="M56.9265 9.70045C56.9084 8.89084 58.0112 8.63515 58.3512 9.37013L64.189 21.9902C64.3147 22.2618 64.5902 22.4322 64.8894 22.4232L78.9696 22.0011C79.7853 21.9767 80.0437 23.0911 79.3004 23.4281L66.4709 29.2448C66.1984 29.3684 66.0259 29.6427 66.0326 29.9418L66.3436 43.8433C66.3617 44.6529 65.2588 44.9086 64.9188 44.1736L59.081 31.5535C58.9554 31.2819 58.6798 31.1115 58.3807 31.1205L44.3005 31.5426C43.4847 31.567 43.2264 30.4526 43.9697 30.1156L56.7992 24.2989C57.0717 24.1753 57.2442 23.901 57.2375 23.6019L56.9265 9.70045Z" fill="#E8F0F0"/>
<path d="M39.782 35.7055C39.782 33.1596 41.8459 31.0957 44.3918 31.0957C46.9377 31.0957 49.0016 33.1596 49.0016 35.7055V48.5106C49.0016 51.0565 46.9377 53.1204 44.3918 53.1204C41.8459 53.1204 39.782 51.0565 39.782 48.5106V35.7055Z" fill="var(--fill-0, #E8F0F0)"/>
<path d="M19.2938 35.4494C19.2938 33.0449 21.2431 31.0957 23.6476 31.0957C26.0521 31.0957 28.0013 33.0449 28.0013 35.4494V48.7667C28.0013 51.1712 26.0521 53.1204 23.6476 53.1204C21.2431 53.1204 19.2938 51.1712 19.2938 48.7667V35.4494Z" fill="var(--fill-0, #E8F0F0)"/>
</g>
</svg>
