<svg width="121" height="110" viewBox="0 0 121 110" fill="none" xmlns="http://www.w3.org/2000/svg">
<path d="M38.6141 87.867V85.1065H43.7713V100.706H40.6898V87.867H38.6141ZM49.3416 92.4464C47.915 91.7045 47.2017 90.5561 47.2017 89.0011C47.2017 88.2308 47.3943 87.5317 47.7794 86.904C48.1789 86.262 48.7709 85.7556 49.5556 85.3847C50.3545 84.9995 51.3246 84.8069 52.4658 84.8069C53.6071 84.8069 54.5701 84.9995 55.3547 85.3847C56.1536 85.7556 56.7457 86.262 57.1308 86.904C57.5303 87.5317 57.73 88.2308 57.73 89.0011C57.73 89.7858 57.5374 90.4777 57.1522 91.0768C56.7671 91.6617 56.2535 92.1183 55.6115 92.4464C56.3961 92.7888 57.0096 93.2881 57.4518 93.9443C57.8941 94.6005 58.1152 95.378 58.1152 96.2768C58.1152 97.2469 57.8655 98.0957 57.3662 98.8233C56.8812 99.5366 56.2107 100.086 55.3547 100.471C54.4988 100.856 53.5358 101.049 52.4658 101.049C51.3959 101.049 50.4329 100.856 49.577 100.471C48.7353 100.086 48.0648 99.5366 47.5655 98.8233C47.0804 98.0957 46.8379 97.2469 46.8379 96.2768C46.8379 95.378 47.059 94.6005 47.5013 93.9443C47.9435 93.2738 48.5569 92.7745 49.3416 92.4464ZM54.8197 89.4291C54.8197 88.7301 54.6058 88.188 54.1778 87.8028C53.7641 87.4176 53.1934 87.225 52.4658 87.225C51.7525 87.225 51.1819 87.4176 50.7539 87.8028C50.3402 88.188 50.1333 88.7372 50.1333 89.4505C50.1333 90.0925 50.3473 90.6061 50.7753 90.9912C51.2176 91.3764 51.7811 91.569 52.4658 91.569C53.1506 91.569 53.7141 91.3764 54.1564 90.9912C54.5986 90.5918 54.8197 90.0711 54.8197 89.4291ZM52.4658 93.7517C51.6527 93.7517 50.9893 93.9586 50.4757 94.3723C49.9764 94.786 49.7268 95.378 49.7268 96.1484C49.7268 96.8617 49.9693 97.4466 50.4543 97.9031C50.9536 98.3454 51.6241 98.5665 52.4658 98.5665C53.3075 98.5665 53.9709 98.3383 54.456 97.8817C54.941 97.4252 55.1835 96.8475 55.1835 96.1484C55.1835 95.3923 54.9339 94.8074 54.4346 94.3937C53.9353 93.9657 53.279 93.7517 52.4658 93.7517ZM60.4815 92.7032C60.4815 90.2351 60.9237 88.3021 61.8082 86.904C62.707 85.5059 64.1907 84.8069 66.2592 84.8069C68.3278 84.8069 69.8043 85.5059 70.6888 86.904C71.5876 88.3021 72.037 90.2351 72.037 92.7032C72.037 95.1855 71.5876 97.1328 70.6888 98.5451C69.8043 99.9575 68.3278 100.664 66.2592 100.664C64.1907 100.664 62.707 99.9575 61.8082 98.5451C60.9237 97.1328 60.4815 95.1855 60.4815 92.7032ZM69.0839 92.7032C69.0839 91.6475 69.0126 90.763 68.8699 90.0497C68.7415 89.3221 68.4705 88.7301 68.0568 88.2736C67.6573 87.817 67.0581 87.5888 66.2592 87.5888C65.4603 87.5888 64.854 87.817 64.4403 88.2736C64.0409 88.7301 63.7698 89.3221 63.6271 90.0497C63.4987 90.763 63.4346 91.6475 63.4346 92.7032C63.4346 93.7874 63.4987 94.7004 63.6271 95.4422C63.7555 96.1698 64.0266 96.7619 64.4403 97.2184C64.854 97.6606 65.4603 97.8817 66.2592 97.8817C67.0581 97.8817 67.6644 97.6606 68.0782 97.2184C68.4919 96.7619 68.7629 96.1698 68.8913 95.4422C69.0197 94.7004 69.0839 93.7874 69.0839 92.7032ZM73.7593 89.4291C73.7593 88.2593 74.1445 87.332 74.9148 86.6472C75.6995 85.9624 76.7123 85.6201 77.9535 85.6201C79.1804 85.6201 80.179 85.9696 80.9494 86.6686C81.7197 87.3534 82.1049 88.2736 82.1049 89.4291C82.1049 90.5989 81.7126 91.5333 80.928 92.2324C80.1576 92.9314 79.1518 93.2809 77.9107 93.2809C76.6838 93.2809 75.6852 92.9314 74.9148 92.2324C74.1445 91.5333 73.7593 90.5989 73.7593 89.4291ZM79.751 89.4505C79.751 88.7515 79.5727 88.2165 79.216 87.8456C78.8594 87.4604 78.4243 87.2678 77.9107 87.2678C77.4114 87.2678 76.9834 87.4604 76.6268 87.8456C76.2701 88.2165 76.0918 88.7515 76.0918 89.4505C76.0918 90.1353 76.263 90.6631 76.6054 91.034C76.962 91.405 77.3971 91.5904 77.9107 91.5904C78.41 91.5904 78.838 91.405 79.1946 91.034C79.5656 90.6631 79.751 90.1353 79.751 89.4505Z" fill="#204B66"/>
<path d="M36.835 19.5022L59.4647 9.82644L82.2478 19.8556L59.6181 29.5314L36.835 19.5022Z" stroke="#204B66" stroke-width="7.06422" stroke-linejoin="round"/>
<path d="M60.0459 29.2081L36.8349 19.7784V47.6881L60.0459 57.1178V29.2081Z" stroke="#204B66" stroke-width="7.06422" stroke-linejoin="round"/>
<path d="M60.0459 29.2081L82.2477 19.7784V47.6881L60.0459 57.1178V29.2081Z" stroke="#204B66" stroke-width="7.06422" stroke-linejoin="round"/>
<line x1="102.102" y1="54.0008" x2="114.885" y2="49.0005" stroke="#204B66" stroke-width="5.95671" stroke-linecap="round"/>
<line x1="117.43" y1="62.3788" x2="115.236" y2="48.8291" stroke="#204B66" stroke-width="5.95671" stroke-linecap="round"/>
<path d="M110.505 55C110.505 63.6389 86.5581 70.6422 57.0185 70.6422C27.4788 70.6422 3.53223 63.6389 3.53223 55" stroke="#204B66" stroke-width="7.06422" stroke-linecap="round"/>
</svg>
