<svg width="110" height="110" viewBox="0 0 110 110" fill="none" xmlns="http://www.w3.org/2000/svg">
<line x1="91.5388" y1="54.0607" x2="102.891" y2="49.62" stroke="#204B66" stroke-width="5.29003" stroke-linecap="round"/>
<line x1="105.152" y1="61.501" x2="103.202" y2="49.4678" stroke="#204B66" stroke-width="5.29003" stroke-linecap="round"/>
<path d="M33.5755 42.216C15.7535 44.2182 4 49.0311 4 54.9481C4 62.6202 25.2665 68.8396 51.5 68.8396C77.7335 68.8396 99 62.6202 99 54.9481" stroke="#204B66" stroke-width="6.27359" stroke-linecap="round"/>
<path d="M29.9912 33.4652L44.7779 17.3692L66.8838 17.1692L52.0971 33.2652L29.9912 33.4652Z" stroke="#204B66" stroke-width="6.27359" stroke-linejoin="round"/>
<path d="M52.325 32.8472L30.0916 33.6888L40.2826 56.2829L62.516 55.4413L52.325 32.8472Z" stroke="#204B66" stroke-width="6.27359" stroke-linejoin="round"/>
<path d="M52.325 32.8472L66.8551 17.1067L77.0461 39.7008L62.516 55.4413L52.325 32.8472Z" stroke="#204B66" stroke-width="6.27359" stroke-linejoin="round"/>
<path d="M35.4196 91.3181C36.6358 90.3045 37.605 89.462 38.3272 88.7905C39.0493 88.1064 39.6511 87.3969 40.1326 86.6621C40.614 85.9272 40.8547 85.2051 40.8547 84.4956C40.8547 83.8495 40.7027 83.3427 40.3986 82.9753C40.0946 82.6079 39.6258 82.4242 38.9923 82.4242C38.3589 82.4242 37.8711 82.6395 37.529 83.0703C37.1869 83.4884 37.0096 84.0648 36.9969 84.7997H34.4124C34.463 83.2793 34.9128 82.1264 35.7616 81.3409C36.6232 80.5554 37.7127 80.1627 39.0303 80.1627C40.4747 80.1627 41.5832 80.5491 42.3561 81.3219C43.1289 82.0821 43.5153 83.0893 43.5153 84.3436C43.5153 85.3318 43.2493 86.2756 42.7171 87.1752C42.185 88.0747 41.5769 88.8602 40.8927 89.5317C40.2086 90.1905 39.3154 90.9887 38.2132 91.9262H43.8194V94.1307H34.4314V92.1542L35.4196 91.3181ZM54.3138 82.4812L49.2587 94.3207H46.5601L51.6532 82.7852H45.1538V80.5047H54.3138V82.4812ZM55.9073 87.2132C55.9073 85.0214 56.3001 83.3047 57.0856 82.0631C57.8837 80.8215 59.2014 80.2007 61.0384 80.2007C62.8755 80.2007 64.1868 80.8215 64.9723 82.0631C65.7704 83.3047 66.1695 85.0214 66.1695 87.2132C66.1695 89.4177 65.7704 91.147 64.9723 92.4013C64.1868 93.6556 62.8755 94.2827 61.0384 94.2827C59.2014 94.2827 57.8837 93.6556 57.0856 92.4013C56.3001 91.147 55.9073 89.4177 55.9073 87.2132ZM63.547 87.2132C63.547 86.2756 63.4836 85.4901 63.3569 84.8567C63.2429 84.2105 63.0022 83.6848 62.6348 83.2793C62.28 82.8739 61.7479 82.6712 61.0384 82.6712C60.3289 82.6712 59.7905 82.8739 59.4231 83.2793C59.0683 83.6848 58.8276 84.2105 58.7009 84.8567C58.5869 85.4901 58.5299 86.2756 58.5299 87.2132C58.5299 88.1761 58.5869 88.9869 58.7009 89.6457C58.8149 90.2918 59.0557 90.8176 59.4231 91.223C59.7905 91.6158 60.3289 91.8122 61.0384 91.8122C61.7479 91.8122 62.2863 91.6158 62.6538 91.223C63.0212 90.8176 63.2619 90.2918 63.3759 89.6457C63.4899 88.9869 63.547 88.1761 63.547 87.2132ZM67.699 84.3056C67.699 83.2667 68.0411 82.4432 68.7253 81.835C69.4221 81.2269 70.3216 80.9228 71.4238 80.9228C72.5134 80.9228 73.4003 81.2332 74.0844 81.854C74.7686 82.4622 75.1106 83.2793 75.1106 84.3056C75.1106 85.3444 74.7622 86.1743 74.0654 86.7951C73.3813 87.4159 72.4881 87.7263 71.3858 87.7263C70.2963 87.7263 69.4094 87.4159 68.7253 86.7951C68.0411 86.1743 67.699 85.3444 67.699 84.3056ZM73.0202 84.3246C73.0202 83.7038 72.8618 83.2287 72.5451 82.8993C72.2284 82.5572 71.8419 82.3861 71.3858 82.3861C70.9424 82.3861 70.5623 82.5572 70.2456 82.8993C69.9289 83.2287 69.7705 83.7038 69.7705 84.3246C69.7705 84.9327 69.9225 85.4015 70.2266 85.7309C70.5433 86.0603 70.9297 86.225 71.3858 86.225C71.8293 86.225 72.2093 86.0603 72.5261 85.7309C72.8555 85.4015 73.0202 84.9327 73.0202 84.3246Z" fill="#204B66"/>
</svg>
