<svg width="55" height="55" viewBox="0 0 55 55" fill="none" xmlns="http://www.w3.org/2000/svg">
<path d="M41.832 9.16699C43.7176 9.16699 44.6613 9.16717 45.2471 9.75293C45.8324 10.3387 45.832 11.2819 45.832 13.167V44.125C45.832 46.0103 45.8326 46.9533 45.2471 47.5391C44.6613 48.1248 43.7176 48.125 41.832 48.125H20.041C18.1556 48.125 17.2127 48.1247 16.627 47.5391C16.0412 46.9533 16.041 46.0106 16.041 44.125V43.25H20.624C21.7283 43.2498 22.6238 42.3543 22.624 41.25C22.6238 40.1457 21.7283 39.2502 20.624 39.25H16.041V31.791H20.624C21.7284 31.7908 22.624 30.8955 22.624 29.791C22.6237 28.6869 21.7282 27.7912 20.624 27.791H16.041V20.333H20.624C21.7284 20.3328 22.624 19.4375 22.624 18.333C22.6238 17.2287 21.7283 16.3332 20.624 16.333H16.041V13.167C16.041 11.2814 16.0412 10.3387 16.627 9.75293C17.2127 9.16715 18.1554 9.16699 20.041 9.16699H41.832ZM20.624 40.25C21.1761 40.2502 21.6238 40.698 21.624 41.25C21.6238 41.802 21.176 42.2498 20.624 42.25H11.457C10.905 42.2498 10.4572 41.802 10.457 41.25C10.4572 40.698 10.905 40.2502 11.457 40.25H20.624ZM20.624 28.791C21.1759 28.7912 21.6237 29.2391 21.624 29.791C21.624 30.3432 21.1762 30.7908 20.624 30.791H11.457C10.9049 30.7908 10.457 30.3432 10.457 29.791C10.4574 29.2391 10.9051 28.7912 11.457 28.791H20.624ZM36.666 17.334C36.1138 17.334 35.666 17.7817 35.666 18.334V22.917C35.6662 23.4691 36.1139 23.917 36.666 23.917C37.218 23.9168 37.6658 23.469 37.666 22.917V18.334C37.666 17.7818 37.2181 17.3342 36.666 17.334ZM20.624 17.333C21.1761 17.3332 21.6238 17.781 21.624 18.333C21.624 18.8852 21.1762 19.3328 20.624 19.333H11.457C10.9049 19.3328 10.457 18.8852 10.457 18.333C10.4572 17.781 10.905 17.3332 11.457 17.333H20.624Z" fill="white"/>
</svg>
