<svg width="111" height="110" viewBox="0 0 111 110" fill="none" xmlns="http://www.w3.org/2000/svg">
<path d="M55.1495 0C44.2419 0 33.5794 3.22569 24.5101 9.26917C15.4408 15.3126 8.37216 23.9025 4.19803 33.9524C0.0238953 44.0023 -1.06825 55.061 1.05971 65.7299C3.18766 76.3989 8.44013 86.199 16.1529 93.8908C23.8657 101.583 33.6924 106.821 44.3903 108.943C55.0883 111.065 66.177 109.976 76.2542 105.813C86.3315 101.651 94.9447 94.601 101.005 85.5563C107.064 76.5116 110.299 65.878 110.299 55C110.283 40.4179 104.468 26.4375 94.1287 16.1264C83.7896 5.81523 69.7712 0.0155986 55.1495 0ZM55.1495 102.143C45.8002 102.143 36.6608 99.378 28.8871 94.1978C21.1135 89.0177 15.0546 81.655 11.4768 73.0408C7.89898 64.4265 6.96285 54.9477 8.78681 45.8029C10.6108 36.6581 15.1129 28.258 21.7239 21.665C28.3348 15.0719 36.7577 10.582 45.9274 8.76298C55.097 6.94396 64.6016 7.87755 73.2393 11.4457C81.8769 15.0138 89.2596 21.0562 94.4538 28.8088C99.648 36.5614 102.42 45.676 102.42 55C102.407 67.4989 97.4222 79.482 88.5601 88.3201C79.698 97.1582 67.6823 102.129 55.1495 102.143Z" fill="#204B66"/>
<path d="M64.9982 51.0711H59.0894V39.2854H70.9071C71.9519 39.2854 72.9538 38.8715 73.6926 38.1348C74.4313 37.398 74.8464 36.3988 74.8464 35.3569C74.8464 34.3149 74.4313 33.3157 73.6926 32.5789C72.9538 31.8422 71.9519 31.4283 70.9071 31.4283H59.0894V23.5711C59.0894 22.5292 58.6743 21.53 57.9356 20.7932C57.1968 20.0565 56.1949 19.6426 55.1501 19.6426C54.1054 19.6426 53.1034 20.0565 52.3647 20.7932C51.6259 21.53 51.2109 22.5292 51.2109 23.5711V31.4283H45.302C41.6454 31.4283 38.1385 32.8769 35.5529 35.4556C32.9672 38.0342 31.5146 41.5316 31.5146 45.1783C31.5146 48.825 32.9672 52.3224 35.5529 54.901C38.1385 57.4796 41.6454 58.9283 45.302 58.9283H51.2109V70.714H39.3931C38.3484 70.714 37.3464 71.1279 36.6077 71.8646C35.8689 72.6014 35.4539 73.6006 35.4539 74.6426C35.4539 75.6845 35.8689 76.6837 36.6077 77.4205C37.3464 78.1572 38.3484 78.5711 39.3931 78.5711H51.2109V86.4283C51.2109 87.4702 51.6259 88.4694 52.3647 89.2062C53.1034 89.9429 54.1054 90.3568 55.1501 90.3568C56.1949 90.3568 57.1968 89.9429 57.9356 89.2062C58.6743 88.4694 59.0894 87.4702 59.0894 86.4283V78.5711H64.9982C68.6549 78.5711 72.1618 77.1225 74.7474 74.5439C77.333 71.9652 78.7856 68.4679 78.7856 64.8211C78.7856 61.1744 77.333 57.677 74.7474 55.0984C72.1618 52.5198 68.6549 51.0711 64.9982 51.0711ZM51.2109 51.0711H45.302C43.7349 51.0711 42.2319 50.4503 41.1238 49.3452C40.0157 48.24 39.3931 46.7412 39.3931 45.1783C39.3931 43.6154 40.0157 42.1165 41.1238 41.0114C42.2319 39.9063 43.7349 39.2854 45.302 39.2854H51.2109V51.0711ZM64.9982 70.714H59.0894V58.9283H64.9982C66.5654 58.9283 68.0683 59.5491 69.1764 60.6543C70.2846 61.7594 70.9071 63.2583 70.9071 64.8211C70.9071 66.384 70.2846 67.8829 69.1764 68.988C68.0683 70.0931 66.5654 70.714 64.9982 70.714Z" fill="#204B66"/>
</svg>
