<svg width="116" height="116" viewBox="0 0 116 116" fill="none" xmlns="http://www.w3.org/2000/svg">
<g clip-path="url(#clip0_1353_5177)">
<path d="M45.4463 38.75V35.0766H45.4461L45.4463 38.75ZM52.8281 46.1309L56.5015 46.1309V46.1309H52.8281ZM45.4463 53.5117L45.4461 57.1851H45.4463V53.5117ZM25.0068 73.9502L25.0067 77.6236H25.0068V73.9502ZM45.4463 38.75V42.4234C47.4945 42.4234 49.1547 44.0839 49.1547 46.1309H52.8281H56.5015C56.5015 40.0251 51.5508 35.0766 45.4463 35.0766V38.75ZM52.8281 46.1309L49.1547 46.1308C49.1547 48.1778 47.4945 49.8383 45.4463 49.8383V53.5117V57.1851C51.5508 57.1851 56.5014 52.2366 56.5015 46.1309L52.8281 46.1309ZM45.2578 53.6954H41.5844V63.7993H45.2578H48.9312V53.6954H45.2578ZM42.2973 66.7598V63.0864H35.2693V66.7598V70.4332H42.2973V66.7598ZM31.7552 69.5586L28.3969 68.0702C27.8175 69.3774 26.5137 70.2768 25.0068 70.2768V73.9502V77.6236C29.5247 77.6236 33.3998 74.9139 35.1136 71.047L31.7552 69.5586ZM25.0068 73.9502L25.007 70.2768C23.5001 70.2767 22.1962 69.3773 21.6168 68.0701L18.2585 69.5586L14.9002 71.047C16.614 74.9138 20.4891 77.6234 25.0067 77.6236L25.0068 73.9502ZM14.7444 66.7598V63.0864H6.96049V66.7598V70.4332H14.7444V66.7598ZM4 63.7993H7.6734V28.4624H4H0.3266V63.7993H4ZM6.96049 25.502V29.1754H42.2973V25.502V21.8286H6.96049V25.502ZM45.2578 28.4624H41.5844V38.5654H45.2578H48.9312V28.4624H45.2578ZM4 28.4624H7.6734C7.6734 28.8562 7.35422 29.1754 6.96049 29.1754V25.502V21.8286C3.29669 21.8286 0.3266 24.7986 0.3266 28.4624H4ZM6.96049 66.7598V63.0864C7.35422 63.0864 7.6734 63.4055 7.6734 63.7993H4H0.3266C0.3266 67.4631 3.29669 70.4332 6.96049 70.4332V66.7598ZM18.2585 69.5586L21.6168 68.0701C20.7336 66.0774 18.5152 63.0864 14.7444 63.0864V66.7598V70.4332C14.6271 70.4332 14.5274 70.4068 14.4646 70.3806C14.4094 70.3576 14.4095 70.3463 14.4558 70.3863C14.5026 70.4268 14.5766 70.503 14.6626 70.6245C14.748 70.745 14.8302 70.8892 14.9002 71.047L18.2585 69.5586ZM35.2693 66.7598V63.0864C31.4984 63.0864 29.2801 66.0774 28.3969 68.0702L31.7552 69.5586L35.1136 71.047C35.1835 70.8892 35.2658 70.745 35.3511 70.6245C35.4371 70.503 35.5111 70.4268 35.5579 70.3863C35.6041 70.3463 35.6043 70.3576 35.5491 70.3806C35.4863 70.4068 35.3866 70.4332 35.2693 70.4332V66.7598ZM45.4463 53.5117L45.4465 49.8383C43.4391 49.8382 41.5844 51.4406 41.5844 53.6954H45.2578H48.9312C48.9312 55.7435 47.2468 57.1852 45.4461 57.1851L45.4463 53.5117ZM45.2578 63.7993H41.5844C41.5844 63.4055 41.9036 63.0864 42.2973 63.0864V66.7598V70.4332C45.9611 70.4332 48.9312 67.4631 48.9312 63.7993H45.2578ZM42.2973 25.502V29.1754C41.9036 29.1754 41.5844 28.8562 41.5844 28.4624H45.2578H48.9312C48.9312 24.7986 45.9611 21.8286 42.2973 21.8286V25.502ZM45.4463 38.75L45.4461 35.0766C47.2721 35.0765 48.9312 36.5418 48.9312 38.5654H45.2578H41.5844C41.5844 40.7957 43.4138 42.4235 45.4465 42.4234L45.4463 38.75Z" fill="#204B66"/>
<path d="M45.4463 94.7695L45.4461 98.7695L45.4463 98.7695L45.4463 94.7695ZM38.0654 87.3887L34.0654 87.3887L34.0654 87.3889L38.0654 87.3887ZM45.4463 80.0068L45.4463 76.0068L45.4461 76.0068L45.4463 80.0068ZM65.8857 59.5684L65.8857 55.5684L65.8855 55.5684L65.8857 59.5684ZM83.9331 108.018L83.9331 104.018L83.9331 108.018ZM55.6231 66.7598L55.6231 70.7598L55.6231 66.7598ZM48.5962 66.7598L48.5962 70.7598L48.5962 66.7598ZM48.5962 108.018L48.5962 112.018L48.5962 108.018ZM45.4463 94.7695L45.4465 90.7695C43.5794 90.7694 42.0655 89.2556 42.0654 87.3884L38.0654 87.3887L34.0654 87.3889C34.0658 93.6739 39.161 98.7693 45.4461 98.7695L45.4463 94.7695ZM38.0654 87.3887L42.0654 87.3887C42.0654 85.521 43.5798 84.0069 45.4465 84.0068L45.4463 80.0068L45.4461 76.0068C39.1604 76.0071 34.0654 81.1038 34.0654 87.3887L38.0654 87.3887ZM45.6357 79.8222L49.6357 79.8222L49.6357 69.7202L45.6357 69.7202L41.6357 69.7202L41.6357 79.8222L45.6357 79.8222ZM48.5962 66.7598L48.5962 70.7598L55.6231 70.7598L55.6231 66.7598L55.6231 62.7598L48.5962 62.7598L48.5962 66.7598ZM59.1372 63.9607L62.7942 65.5813C63.3233 64.3875 64.5131 63.5684 65.886 63.5684L65.8857 59.5684L65.8855 55.5684C61.2337 55.5686 57.2443 58.3594 55.4802 62.3401L59.1372 63.9607ZM65.8857 59.5684L65.8857 63.5684C67.2588 63.5684 68.4491 64.3876 68.9782 65.5815L72.6351 63.9608L76.2921 62.34C74.5277 58.359 70.5377 55.5684 65.8857 55.5684L65.8857 59.5684ZM76.1494 66.7598L76.1494 70.7598L83.9331 70.7598L83.9331 66.7598L83.9331 62.7598L76.1494 62.7598L76.1494 66.7598ZM86.8936 69.7203L82.8936 69.7203L82.8936 105.057L86.8936 105.057L90.8936 105.057L90.8936 69.7203L86.8936 69.7203ZM83.9331 108.018L83.9331 104.018L48.5962 104.018L48.5962 108.018L48.5962 112.018L83.9331 112.018L83.9331 108.018ZM45.6357 105.057L49.6357 105.057L49.6357 94.9551L45.6357 94.9551L41.6357 94.9551L41.6357 105.057L45.6357 105.057ZM86.8936 105.057L82.8936 105.057C82.8936 104.483 83.359 104.018 83.9331 104.018L83.9331 108.018L83.9331 112.018C87.7772 112.018 90.8936 108.901 90.8936 105.057L86.8936 105.057ZM83.9331 66.7598L83.9331 70.7598C83.359 70.7598 82.8936 70.2944 82.8936 69.7203L86.8936 69.7203L90.8936 69.7203C90.8936 65.8761 87.7772 62.7598 83.9331 62.7598L83.9331 66.7598ZM72.6351 63.9608L68.9782 65.5815C69.8821 67.6209 72.1859 70.7598 76.1494 70.7598L76.1494 66.7598L76.1494 62.7598C76.3128 62.7598 76.4551 62.7958 76.5549 62.8375C76.6466 62.8757 76.6755 62.9069 76.6517 62.8863C76.6272 62.865 76.5704 62.8091 76.4976 62.7062C76.4255 62.6044 76.3538 62.4792 76.2921 62.34L72.6351 63.9608ZM55.6231 66.7598L55.6231 70.7598C59.5866 70.7598 61.8904 67.6209 62.7942 65.5813L59.1372 63.9607L55.4802 62.3401C55.4186 62.4793 55.3469 62.6045 55.2748 62.7063C55.202 62.8092 55.1452 62.8651 55.1207 62.8863C55.0969 62.9069 55.1259 62.8757 55.2175 62.8375C55.3173 62.7958 55.4596 62.7598 55.6231 62.7598L55.6231 66.7598ZM45.4463 80.0068L45.4463 84.0068C47.6238 84.0068 49.6357 82.2683 49.6357 79.8222L45.6357 79.8222L41.6357 79.8222C41.6357 77.5838 43.4765 76.0068 45.4463 76.0068L45.4463 80.0068ZM45.6357 69.7202L49.6357 69.7202C49.6357 70.2944 49.1703 70.7598 48.5962 70.7598L48.5962 66.7598L48.5962 62.7598C44.7521 62.7598 41.6357 65.8761 41.6357 69.7202L45.6357 69.7202ZM48.5962 108.018L48.5962 104.018C49.1703 104.018 49.6357 104.483 49.6357 105.057L45.6357 105.057L41.6357 105.057C41.6357 108.901 44.7521 112.018 48.5962 112.018L48.5962 108.018ZM45.4463 94.7695L45.4463 98.7695C43.4491 98.7695 41.6357 97.167 41.6357 94.9551L45.6357 94.9551L49.6357 94.9551C49.6357 92.5355 47.6512 90.7695 45.4463 90.7695L45.4463 94.7695Z" fill="#204B66"/>
<path d="M25.0068 73.9502L25.0067 77.6236H25.0068V73.9502ZM38.0654 87.3887H34.392V87.3888L38.0654 87.3887ZM42.4584 80.6391L40.9703 77.2806L42.4584 80.6391ZM18.2585 69.5586L14.9002 71.047C16.614 74.9138 20.4891 77.6234 25.0067 77.6236L25.0068 73.9502L25.007 70.2768C23.5001 70.2767 22.1962 69.3773 21.6168 68.0701L18.2585 69.5586ZM25.0068 73.9502V77.6236C29.5247 77.6236 33.3998 74.9139 35.1136 71.047L31.7552 69.5586L28.3969 68.0702C27.8175 69.3774 26.5137 70.2768 25.0068 70.2768V73.9502ZM35.2693 66.7598V70.4332H42.2973V66.7598V63.0864H35.2693V66.7598ZM45.2578 69.7203H41.5844V77.1247H45.2578H48.9312V69.7203H45.2578ZM42.4584 80.6391L40.9703 77.2806C37.1027 78.9944 34.392 82.8702 34.392 87.3887H38.0654H41.7388C41.7388 85.8817 42.6387 84.577 43.9466 83.9975L42.4584 80.6391ZM38.0654 87.3887L34.392 87.3888C34.3922 91.9073 37.103 95.7825 40.9704 97.4959L42.4584 94.1374L43.9464 90.7788C42.6386 90.1994 41.7389 88.8953 41.7388 87.3885L38.0654 87.3887ZM45.2578 97.6517H41.5844V105.057H45.2578H48.9312V97.6517H45.2578ZM42.2973 108.018V104.344H6.96049V108.018V111.691H42.2973V108.018ZM4 105.057H7.6734V69.7203H4H0.3266V105.057H4ZM6.96049 66.7598V70.4332H14.7444V66.7598V63.0864H6.96049V66.7598ZM4 69.7203H7.6734C7.6734 70.114 7.35422 70.4332 6.96049 70.4332V66.7598V63.0864C3.29669 63.0864 0.3266 66.0565 0.3266 69.7203H4ZM6.96049 108.018V104.344C7.35422 104.344 7.6734 104.663 7.6734 105.057H4H0.3266C0.3266 108.721 3.2967 111.691 6.96049 111.691V108.018ZM45.2578 105.057H41.5844C41.5844 104.663 41.9036 104.344 42.2973 104.344V108.018V111.691C45.9611 111.691 48.9312 108.721 48.9312 105.057H45.2578ZM42.4584 94.1374L40.9704 97.4959C41.1283 97.5659 41.2725 97.6481 41.393 97.7334C41.5145 97.8194 41.5907 97.8934 41.6313 97.9403C41.6713 97.9865 41.66 97.9867 41.6369 97.9314C41.6107 97.8687 41.5844 97.769 41.5844 97.6517H45.2578H48.9312C48.9312 93.8803 45.9395 91.6619 43.9464 90.7788L42.4584 94.1374ZM45.2578 77.1247H41.5844C41.5844 77.0074 41.6107 76.9077 41.6369 76.8449C41.66 76.7897 41.6713 76.7899 41.6313 76.8361C41.5907 76.883 41.5145 76.957 41.3929 77.0431C41.2724 77.1284 41.1281 77.2107 40.9703 77.2806L42.4584 80.6391L43.9466 83.9975C45.9395 83.1144 48.9312 80.896 48.9312 77.1247H45.2578ZM42.2973 66.7598V70.4332C41.9036 70.4332 41.5844 70.114 41.5844 69.7203H45.2578H48.9312C48.9312 66.0565 45.9611 63.0864 42.2973 63.0864V66.7598ZM31.7552 69.5586L35.1136 71.047C35.1835 70.8892 35.2658 70.745 35.3511 70.6245C35.4371 70.503 35.5111 70.4268 35.5579 70.3863C35.6041 70.3463 35.6043 70.3576 35.549 70.3806C35.4863 70.4068 35.3866 70.4332 35.2693 70.4332V66.7598V63.0864C31.4984 63.0864 29.2801 66.0774 28.3969 68.0702L31.7552 69.5586ZM18.2585 69.5586L21.6168 68.0701C20.7336 66.0774 18.5152 63.0864 14.7444 63.0864V66.7598V70.4332C14.6271 70.4332 14.5274 70.4068 14.4646 70.3806C14.4094 70.3576 14.4095 70.3463 14.4558 70.3863C14.5026 70.4268 14.5766 70.503 14.6626 70.6245C14.748 70.745 14.8302 70.8892 14.9002 71.047L18.2585 69.5586Z" fill="#204B66"/>
<path d="M83.8918 45.145L84.9272 41.2814L84.927 41.2813L83.8918 45.145ZM74.7548 28.7863L78.6185 29.8215L78.6185 29.8215L74.7548 28.7863ZM110.14 16.9111L111.175 13.0474L110.14 16.9111ZM72.3823 9.85887L76.246 10.8941L72.3823 9.85887ZM76.0082 7.76549L74.9729 11.6292L76.0082 7.76549ZM72.2593 21.132L74.771 18.0189L72.2593 21.132ZM70.4653 17.0134L66.6016 15.9781L70.4653 17.0134ZM68.7662 34.1681L68.1472 30.2163L68.7662 34.1681ZM89.2737 51.1348L93.2256 50.5163L89.2737 51.1348ZM89.2737 51.1348L93.2256 50.5163C92.5522 46.214 89.4207 42.4856 84.9272 41.2814L83.8918 45.145L82.8563 49.0087C84.1827 49.3642 85.1199 50.4634 85.3218 51.7533L89.2737 51.1348ZM83.8918 45.145L84.927 41.2813C80.4334 40.0772 75.8567 41.7401 73.1221 45.1294L76.2351 47.6412L79.3482 50.1529C80.1681 49.1367 81.5298 48.6532 82.8565 49.0087L83.8918 45.145ZM72.1158 49.4358L73.1511 45.5721L66.3651 43.7538L65.3299 47.6175L64.2946 51.4812L71.0805 53.2995L72.1158 49.4358ZM63.2365 43.9916L67.1002 45.0269L69.017 37.8733L65.1533 36.838L61.2896 35.8028L59.3728 42.9564L63.2365 43.9916ZM68.7662 34.1681L69.3852 38.1199C73.687 37.4461 77.4146 34.3148 78.6185 29.8215L74.7548 28.7863L70.8911 27.751C70.5357 29.0773 69.4369 30.0143 68.1472 30.2163L68.7662 34.1681ZM74.7548 28.7863L78.6185 29.8215C79.8225 25.3281 78.1596 20.753 74.771 18.0189L72.2593 21.132L69.7475 24.245C70.7634 25.0647 71.2464 26.425 70.8911 27.751L74.7548 28.7863ZM70.4653 17.0134L74.329 18.0487L76.246 10.8941L72.3823 9.85887L68.5186 8.82359L66.6016 15.9781L70.4653 17.0134ZM76.0082 7.76549L74.9729 11.6292L109.105 20.7748L110.14 16.9111L111.175 13.0474L77.0434 3.90178L76.0082 7.76549ZM112.233 20.5369L108.37 19.5016L99.2238 53.6344L103.088 54.6697L106.951 55.705L116.097 21.5722L112.233 20.5369ZM99.4617 56.7631L100.497 52.8994L92.979 50.8849L91.9437 54.7486L90.9085 58.6123L98.4264 60.6268L99.4617 56.7631ZM103.088 54.6697L99.2238 53.6344C99.3724 53.0799 99.9424 52.7508 100.497 52.8994L99.4617 56.7631L98.4264 60.6268C102.14 61.6217 105.956 59.4181 106.951 55.705L103.088 54.6697ZM110.14 16.9111L109.105 20.7748C108.55 20.6262 108.221 20.0562 108.37 19.5016L112.233 20.5369L116.097 21.5722C117.092 17.859 114.888 14.0423 111.175 13.0474L110.14 16.9111ZM72.3823 9.85887L76.246 10.8941C76.0974 11.4487 75.5274 11.7778 74.9729 11.6292L76.0082 7.76549L77.0434 3.90178C73.3303 2.90684 69.5136 5.11041 68.5186 8.82359L72.3823 9.85887ZM72.2593 21.132L74.771 18.0189C74.6526 17.9234 74.5503 17.8218 74.4706 17.7258C74.3902 17.6289 74.3509 17.5597 74.3367 17.5306C74.323 17.5023 74.3456 17.5384 74.3589 17.6368C74.3733 17.744 74.3713 17.8908 74.329 18.0487L70.4653 17.0134L66.6016 15.9781C65.5758 19.8065 68.0112 22.8441 69.7475 24.245L72.2593 21.132ZM65.1533 36.838L69.017 37.8733C68.9747 38.0312 68.903 38.1593 68.8369 38.2449C68.7763 38.3236 68.7387 38.3435 68.7647 38.3258C68.7915 38.3076 68.8602 38.2673 68.9784 38.2236C69.0954 38.1804 69.2348 38.1435 69.3852 38.1199L68.7662 34.1681L68.1472 30.2163C65.9434 30.5615 62.3154 31.9744 61.2896 35.8028L65.1533 36.838ZM65.3299 47.6175L66.3651 43.7538C66.9197 43.9024 67.2488 44.4724 67.1002 45.0269L63.2365 43.9916L59.3728 42.9564C58.3778 46.6695 60.5814 50.4862 64.2946 51.4812L65.3299 47.6175ZM76.2351 47.6412L73.1221 45.1294C73.0264 45.248 72.9247 45.3504 72.8287 45.4301C72.7317 45.5107 72.6623 45.5501 72.6331 45.5642C72.6048 45.578 72.6408 45.5554 72.7392 45.5422C72.8464 45.5278 72.9932 45.5297 73.1511 45.5721L72.1158 49.4358L71.0805 53.2995C74.9095 54.3254 77.9474 51.889 79.3482 50.1529L76.2351 47.6412ZM89.2737 51.1348L85.3218 51.7533C85.6667 53.9574 87.0795 57.5864 90.9085 58.6123L91.9437 54.7486L92.979 50.8849C93.1369 50.9272 93.265 50.9989 93.3507 51.065C93.4293 51.1257 93.4492 51.1633 93.4315 51.1372C93.4133 51.1103 93.373 51.0416 93.3293 50.9233C93.286 50.8063 93.2491 50.6668 93.2256 50.5163L89.2737 51.1348Z" fill="#204B66"/>
</g>
<defs>
<clipPath id="clip0_1353_5177">
<rect width="116" height="116" fill="white"/>
</clipPath>
</defs>
</svg>
