<svg width="110" height="110" viewBox="0 0 110 110" fill="none" xmlns="http://www.w3.org/2000/svg">
<path d="M43.4039 22.8727C45.0059 11.4398 48.0022 3.66668 54.2189 3.66668C60.095 3.66668 63.6026 11.4398 65.2046 22.8727C67.2612 37.5495 62.8037 68.5633 56.9724 87.2967C56.6098 88.4618 55.5245 89.2396 54.3042 89.2396C53.084 89.2396 51.9987 88.4618 51.636 87.2967C45.8048 68.5633 41.3473 37.5495 43.4039 22.8727Z" stroke="#204B66" stroke-width="5.70486"/>
<path d="M36.0526 15.6572C37.4361 11.5829 39.7255 8.05603 42.4761 5.43946C42.8636 5.07079 42.4434 4.24888 41.9242 4.37742C38.198 5.29988 34.6139 6.11573 28.4714 10.3348C25.2939 12.5173 11.4148 25.2535 17.5447 50.0762C21.3253 65.3858 34.7735 81.5244 44.0399 89.1341C44.1247 89.2038 44.2286 89.2396 44.3383 89.2396H45.4158C45.7618 89.2396 45.9936 88.8818 45.8596 88.5628C42.6867 81.0081 36.2628 57.7795 35.0703 48.8943C32.7929 31.9264 34.4122 20.488 36.0526 15.6572Z" stroke="#204B66" stroke-width="5.70486"/>
<path d="M73.3713 15.6572C71.9877 11.5829 69.6983 8.05603 66.9478 5.43946C66.5602 5.07079 66.9804 4.24888 67.4997 4.37742C71.2258 5.29988 74.81 6.11573 80.9525 10.3348C84.1299 12.5173 98.009 25.2535 91.8792 50.0762C88.0985 65.3858 74.6503 81.5244 65.3839 89.1341C65.2992 89.2038 65.1952 89.2396 65.0856 89.2396H64.008C63.662 89.2396 63.4302 88.8818 63.5642 88.5628C66.7371 81.0081 73.161 57.7795 74.3535 48.8943C76.6309 31.9264 75.0117 20.488 73.3713 15.6572Z" stroke="#204B66" stroke-width="5.70486"/>
<path d="M45.7815 97.0086L48.8238 105.696C48.9575 106.078 49.3178 106.333 49.7223 106.333H59.2075C59.6313 106.333 60.0041 106.053 60.122 105.646L62.6378 96.9588C62.8141 96.3499 62.3572 95.7419 61.7233 95.7419H46.68C46.0241 95.7419 45.5647 96.3896 45.7815 97.0086Z" stroke="#204B66" stroke-width="5.70486"/>
</svg>
