<svg width="110" height="109" viewBox="0 0 110 109" fill="none" xmlns="http://www.w3.org/2000/svg">
<line x1="8.08973" y1="98.6765" x2="100.296" y2="98.6765" stroke="#204B66" stroke-width="12.9412" stroke-linecap="round"/>
<line x1="12.134" y1="81.6912" x2="71.9869" y2="81.6912" stroke="#204B66" stroke-width="8.08823" stroke-linecap="round"/>
<line x1="46.1027" y1="7.27943" x2="96.2498" y2="7.27943" stroke="#204B66" stroke-width="8.08823" stroke-linecap="round"/>
<line x1="71.9852" y1="81.6912" x2="71.9852" y2="62.2794" stroke="#204B66" stroke-width="8.08823" stroke-linecap="round"/>
<path d="M56.6172 18.2259H85.7354C88.1771 18.226 90.157 20.205 90.1572 22.6468V36.5003C90.1572 37.8601 89.5308 39.1446 88.46 39.9827L75.1572 50.3938C74.3793 51.0026 73.4194 51.3333 72.4316 51.3333H71.1953C70.2615 51.3333 69.3511 51.0374 68.5957 50.4886L54.0186 39.8968C52.8738 39.0649 52.1964 37.7357 52.1963 36.3206V22.6468C52.1965 20.2051 54.1755 18.226 56.6172 18.2259Z" stroke="#204B66" stroke-width="7.33333"/>
</svg>
