<svg width="46" height="46" viewBox="0 0 46 46" fill="none" xmlns="http://www.w3.org/2000/svg">
<path d="M27.9834 7.66667C32.2769 7.66667 34.4235 7.66711 36.0635 8.50261C37.5061 9.23764 38.679 10.4106 39.4141 11.8532C40.2496 13.4931 40.25 15.6398 40.25 19.9333V22.2331C40.25 26.5268 40.2497 28.6741 39.4141 30.3141C38.679 31.7566 37.506 32.9297 36.0635 33.6647C34.4236 34.5001 32.2767 34.4997 27.9834 34.4997H14.2109C13.7026 34.4997 13.2149 34.7018 12.8555 35.0612L9.02148 38.8952C7.81405 40.1019 5.75023 39.2469 5.75 37.5397V19.9333C5.75 15.6398 5.75044 13.4931 6.58594 11.8532C7.32097 10.4106 8.49395 9.23764 9.93652 8.50261C11.5765 7.66711 13.7231 7.66667 18.0166 7.66667H27.9834ZM17.25 22.9997C16.1916 22.9997 15.3332 23.8583 15.333 24.9167C15.3332 25.9751 16.1916 26.8327 17.25 26.8327H23C24.0584 26.8327 24.9168 25.9751 24.917 24.9167C24.9168 23.8583 24.0584 22.9997 23 22.9997H17.25ZM17.25 15.3327C16.1916 15.3327 15.3332 16.1913 15.333 17.2497C15.333 18.3082 16.1915 19.1667 17.25 19.1667H28.75C29.8085 19.1667 30.667 18.3082 30.667 17.2497C30.6668 16.1913 29.8084 15.3327 28.75 15.3327H17.25Z" fill="white"/>
</svg>
