<svg width="60" height="60" viewBox="0 0 60 60" fill="none" xmlns="http://www.w3.org/2000/svg">
<g clip-path="url(#clip0_1354_5831)">
<path d="M49.3266 20.6669L40.4166 24.8249L34.6498 19.0581V15.5931L40.4166 9.82636L49.3266 13.9844C50.2671 14.4299 51.3561 14.0091 51.8016 13.0934C52.2471 12.1529 51.8263 11.0639 50.9106 10.6184L41.2086 6.08911C40.2681 5.64361 39.1543 5.84161 38.4118 6.58411L34.1053 10.8906C33.6598 10.2966 32.9668 9.90061 32.1748 9.90061C30.8136 9.90061 29.6998 11.0144 29.6998 12.3756V14.8506H21.8293C20.7898 11.9796 18.0673 9.90061 14.8498 9.90061C10.7413 9.90061 7.4248 13.2171 7.4248 17.3256C7.4248 20.0481 8.9098 22.3994 11.0878 23.7111L17.5228 44.5506H14.8498C12.1273 44.5506 9.8998 46.7781 9.8998 49.5006V51.9756H42.0748V49.5006C42.0748 46.7781 39.8473 44.5506 37.1248 44.5506H33.1153L20.8146 21.7064C21.2353 21.1124 21.5818 20.4936 21.8293 19.8006H29.6998V22.2756C29.6998 23.6369 30.8136 24.7506 32.1748 24.7506C32.9668 24.7506 33.6598 24.3546 34.1053 23.7606L38.4118 28.0671C39.1543 28.8096 40.2681 29.0076 41.2086 28.5621L50.9106 24.0329C51.8511 23.5874 52.2471 22.4984 51.8016 21.5579C51.3561 20.6421 50.2671 20.2214 49.3266 20.6669ZM14.8498 19.8006C13.4886 19.8006 12.3748 18.6869 12.3748 17.3256C12.3748 15.9644 13.4886 14.8506 14.8498 14.8506C16.2111 14.8506 17.3248 15.9644 17.3248 17.3256C17.3248 18.6869 16.2111 19.8006 14.8498 19.8006ZM27.4971 44.5506H22.6956L16.6071 24.7506H16.8546L27.4971 44.5506Z" fill="#204B66"/>
</g>
<defs>
<clipPath id="clip0_1354_5831">
<rect width="59.4" height="59.4" fill="white"/>
</clipPath>
</defs>
</svg>
