<svg width="60" height="60" viewBox="0 0 60 60" fill="none" xmlns="http://www.w3.org/2000/svg">
<g clip-path="url(#clip0_1354_5603)">
<g clip-path="url(#clip1_1354_5603)">
<path d="M35.2066 2.6493H22.4932C16.7466 2.6493 13.8732 2.6493 12.088 4.43455C10.3027 6.21981 10.3027 9.09313 10.3027 14.8398V45.316C10.3027 51.0626 10.3027 53.9359 12.088 55.7212C13.8732 57.5064 16.7466 57.5064 22.4932 57.5064H40.7789C46.5256 57.5064 49.3989 57.5064 51.1841 55.7212C52.9694 53.9359 52.9694 51.0626 52.9694 45.316V20.4121C52.9694 19.1664 52.9694 18.5436 52.7374 17.9835C52.5054 17.4234 52.065 16.983 51.1842 16.1021L39.5166 4.43455C38.6357 3.5537 38.1953 3.11327 37.6352 2.88128C37.0751 2.6493 36.4523 2.6493 35.2066 2.6493Z" stroke="#204B66" stroke-width="3.54632"/>
<path d="M34.6836 2.6493V14.8398C34.6836 17.7131 34.6836 19.1498 35.5762 20.0424C36.4688 20.935 37.9055 20.935 40.7788 20.935H52.9693" stroke="#204B66" stroke-width="3.54632"/>
<mask id="path-3-inside-1_1354_5603" fill="white">
<rect x="4.81445" y="35.1757" width="38.5662" height="17.7316" rx="2.21645"/>
</mask>
<rect x="4.81445" y="35.1757" width="38.5662" height="17.7316" rx="2.21645" fill="#204B66" stroke="#204B66" stroke-width="5.31948" mask="url(#path-3-inside-1_1354_5603)"/>
</g>
</g>
<defs>
<clipPath id="clip0_1354_5603">
<rect width="60" height="60" fill="white"/>
</clipPath>
<clipPath id="clip1_1354_5603">
<rect width="52.3636" height="59.8442" fill="white" transform="translate(3.81836 0.155844)"/>
</clipPath>
</defs>
</svg>
