<svg width="110" height="110" viewBox="0 0 110 110" fill="none" xmlns="http://www.w3.org/2000/svg">
<path d="M41.0955 39.65C42.2593 36.3418 44.5563 33.5521 47.5798 31.7752C50.6032 29.9983 54.158 29.3487 57.6145 29.9416C61.071 30.5345 64.2061 32.3315 66.4646 35.0145C68.7231 37.6974 69.9592 41.093 69.954 44.6C69.954 54.5 55.104 59.45 55.104 59.45M55.5 79.25H55.5495M105 54.5C105 81.8381 82.8381 104 55.5 104C28.1619 104 6 81.8381 6 54.5C6 27.1619 28.1619 5 55.5 5C82.8381 5 105 27.1619 105 54.5Z" stroke="#204B66" stroke-width="8.48571" stroke-linecap="round" stroke-linejoin="round"/>
</svg>
