<svg width="57" height="57" viewBox="0 0 57 57" fill="none" xmlns="http://www.w3.org/2000/svg">
<g clip-path="url(#clip0_1356_2315)">
<path d="M21.375 49.875C21.375 51.0625 22.325 52.25 23.75 52.25H33.25C34.675 52.25 35.625 51.0625 35.625 49.875V47.5H21.375V49.875ZM28.5 4.75C19.2375 4.75 11.875 12.1125 11.875 21.375C11.875 27.075 14.725 32.0625 19 34.9125V40.375C19 41.5625 19.95 42.75 21.375 42.75H35.625C37.05 42.75 38 41.5625 38 40.375V34.9125C42.275 31.825 45.125 26.8375 45.125 21.375C45.125 12.1125 37.7625 4.75 28.5 4.75Z" fill="white"/>
</g>
<defs>
<clipPath id="clip0_1356_2315">
<rect width="57" height="57" fill="white"/>
</clipPath>
</defs>
</svg>
