<svg width="110" height="110" viewBox="0 0 110 110" fill="none" xmlns="http://www.w3.org/2000/svg">
<g clip-path="url(#clip0_1357_6297)">
<path d="M83.0013 41.4165H87.279C89.9174 41.4165 92.2274 43.1875 92.9123 45.7355L104.359 88.3188C105.356 92.0248 102.564 95.6665 98.7261 95.6665H11.1197C7.33079 95.6665 4.54734 92.1108 5.45697 88.4327L15.9883 45.8494C16.6323 43.2456 18.9688 41.4165 21.6511 41.4165H30.5013" stroke="#204B66" stroke-width="9.33333" stroke-linecap="round" stroke-linejoin="round"/>
<path d="M39.5787 41.0661L41.5311 45.0929C42.1919 46.4558 42.5222 47.1372 42.9636 47.7275C43.3553 48.2516 43.8108 48.7213 44.3188 49.1253C44.8915 49.5804 45.5522 49.9212 46.8737 50.6024L50.7785 52.6159L46.8737 54.6294C45.5522 55.3106 44.8915 55.6514 44.3188 56.1065C43.8108 56.5105 43.3553 56.9802 42.9636 57.5043C42.5222 58.0946 42.1919 58.7761 41.5311 60.1389L39.5787 64.1657L37.6263 60.1389C36.9655 58.7761 36.6352 58.0946 36.1938 57.5043C35.8022 56.9802 35.3467 56.5105 34.8386 56.1065C34.266 55.6514 33.6052 55.3106 32.2837 54.6294L28.3789 52.6159L32.2837 50.6024C33.6052 49.9212 34.266 49.5804 34.8386 49.1253C35.3467 48.7213 35.8022 48.2516 36.1938 47.7275C36.6352 47.1372 36.9655 46.4558 37.6263 45.0929L39.5787 41.0661ZM60.7339 12.8333L63.6673 20.6985C64.3691 22.5804 64.72 23.5213 65.2658 24.3128C65.7497 25.0143 66.3438 25.6272 67.0242 26.126C67.7915 26.6888 68.7042 27.0507 70.529 27.7745L78.1558 30.7996L70.529 33.8246C68.7042 34.5484 67.7915 34.9103 67.0242 35.4732C66.3438 35.9721 65.7497 36.5848 65.2658 37.2865C64.72 38.0778 64.3691 39.019 63.6673 40.9008L60.7339 48.766L57.8006 40.9008C57.0987 39.019 56.7478 38.0778 56.202 37.2865C55.7181 36.5848 55.124 35.9721 54.4436 35.4732C53.6763 34.9103 52.7636 34.5484 50.9388 33.8246L43.312 30.7996L50.9388 27.7745C52.7636 27.0507 53.6763 26.6888 54.4436 26.126C55.124 25.6272 55.7181 25.0143 56.202 24.3128C56.7478 23.5213 57.0987 22.5804 57.8006 20.6985L60.7339 12.8333Z" stroke="#204B66" stroke-width="7" stroke-linecap="round" stroke-linejoin="round"/>
</g>
<defs>
<clipPath id="clip0_1357_6297">
<rect width="110" height="110" fill="white"/>
</clipPath>
</defs>
</svg>
