<svg width="62" height="62" viewBox="0 0 62 62" fill="none" xmlns="http://www.w3.org/2000/svg">
<g clip-path="url(#clip0_1356_2320)">
<path d="M30.4828 28.1583C24.6187 26.6342 22.7328 25.0583 22.7328 22.6042C22.7328 19.7883 25.342 17.825 29.7078 17.825C34.3062 17.825 36.0112 20.0208 36.1662 23.25H41.8753C41.6945 18.8067 38.982 14.725 33.5828 13.4075V7.75H25.8328V13.33C20.8212 14.415 16.7912 17.67 16.7912 22.6558C16.7912 28.6233 21.7253 31.5942 28.9328 33.325C35.3912 34.875 36.6828 37.1483 36.6828 39.5508C36.6828 41.3333 35.417 44.175 29.7078 44.175C24.3862 44.175 22.2937 41.7983 22.0095 38.75H16.3262C16.6362 44.4075 20.8728 47.585 25.8328 48.6442V54.25H33.5828V48.6958C38.6203 47.74 42.6245 44.8208 42.6245 39.525C42.6245 32.1883 36.347 29.6825 30.4828 28.1583Z" fill="white"/>
</g>
<defs>
<clipPath id="clip0_1356_2320">
<rect width="62" height="62" fill="white"/>
</clipPath>
</defs>
</svg>
