<svg width="109" height="109" viewBox="0 0 109 109" fill="none" xmlns="http://www.w3.org/2000/svg">
<g clip-path="url(#clip0_1353_5590)">
<path d="M58.7012 27.2296L60.584 25.1493L60.5837 25.149L58.7012 27.2296ZM59.0332 28.4669L56.2413 28.7458L56.2413 28.7459L59.0332 28.4669ZM59.7041 35.1797L62.496 34.9008L62.496 34.9007L59.7041 35.1797ZM60.3428 37.3282L59.2669 39.9195L59.2689 39.9203L60.3428 37.3282ZM62.3145 36.2618L60.5379 34.0901L60.5378 34.0901L62.3145 36.2618ZM67.5371 31.9893L69.3137 34.161L69.3137 34.161L67.5371 31.9893ZM68.6465 31.3497L68.7874 28.5474L68.7862 28.5473L68.6465 31.3497ZM69.6865 32.0958L71.6705 30.1118L71.6704 30.1116L69.6865 32.0958ZM75.1924 37.6016L73.2084 39.5856L73.2085 39.5858L75.1924 37.6016ZM75.9395 38.6417L78.7418 38.5019L78.7417 38.5007L75.9395 38.6417ZM75.2998 39.751L77.4711 41.5281L77.4713 41.5279L75.2998 39.751ZM71.0264 44.9727L68.855 43.1957L68.8549 43.1958L71.0264 44.9727ZM69.96 46.9444L67.3677 48.018L67.3683 48.0196L69.96 46.9444ZM72.1084 47.584L71.8292 50.3759L71.8294 50.3759L72.1084 47.584ZM78.8223 48.2549L79.1015 45.4631L79.1013 45.463L78.8223 48.2549ZM80.0586 48.587L82.1393 46.7046L82.139 46.7043L80.0586 48.587ZM80.0586 58.9014L82.1389 60.7842L82.1392 60.7839L80.0586 58.9014ZM78.8213 59.2335L78.5423 56.4416L78.5422 56.4416L78.8213 59.2335ZM72.1094 59.9044L72.3884 62.6963L72.3884 62.6963L72.1094 59.9044ZM69.9609 60.543L67.3695 59.4674L67.3687 59.4692L69.9609 60.543ZM71.0273 62.5147L68.8558 64.2915L68.8558 64.2915L71.0273 62.5147ZM75.2998 67.7364L77.4714 65.9596L77.4713 65.9596L75.2998 67.7364ZM75.9395 68.8458L78.7417 68.9868L78.7418 68.9856L75.9395 68.8458ZM75.1924 69.8858L73.2085 67.9017L73.2084 67.9018L75.1924 69.8858ZM69.6865 75.3917L71.6704 77.3758L71.6705 77.3757L69.6865 75.3917ZM68.6465 76.1378L68.7862 78.9401L68.7874 78.94L68.6465 76.1378ZM67.5371 75.4981L69.3137 73.3264L69.3137 73.3264L67.5371 75.4981ZM62.3145 71.2256L60.5378 73.3973L60.5379 73.3973L62.3145 71.2256ZM60.3428 70.1592L59.2689 67.5671L59.2669 67.5679L60.3428 70.1592ZM59.7041 72.3077L62.496 72.5867L62.496 72.5866L59.7041 72.3077ZM59.0332 79.0215L56.2413 78.7426L56.2413 78.7426L59.0332 79.0215ZM58.7012 80.2589L60.5837 82.3394L60.584 82.3391L58.7012 80.2589ZM48.3867 80.2589L46.5041 82.3393L46.5045 82.3397L48.3867 80.2589ZM48.0547 79.0225L45.2628 79.3019L45.2628 79.302L48.0547 79.0225ZM47.3828 72.3087L50.1747 72.0293L50.1747 72.0292L47.3828 72.3087ZM46.7432 70.1612L47.8181 67.5694L47.8167 67.5689L46.7432 70.1612ZM44.7715 71.2276L42.9946 69.0561L42.9945 69.0562L44.7715 71.2276ZM39.5508 75.5001L41.3276 77.6715L41.3278 77.6714L39.5508 75.5001ZM38.4414 76.1397L38.3005 78.942L38.3016 78.942L38.4414 76.1397ZM37.4014 75.3926L39.3855 73.4088L39.3854 73.4086L37.4014 75.3926ZM31.8955 69.8868L29.9114 71.8707L29.9115 71.8708L31.8955 69.8868ZM31.1494 68.8467L28.3471 68.9865L28.3471 68.9877L31.1494 68.8467ZM31.7891 67.7374L33.9607 69.514L33.9608 69.514L31.7891 67.7374ZM36.0615 62.5147L33.8899 60.7381L33.8898 60.7381L36.0615 62.5147ZM37.1279 60.543L39.7201 59.4691L39.7193 59.4672L37.1279 60.543ZM34.9805 59.9044L34.7015 62.6963L34.7015 62.6963L34.9805 59.9044ZM28.2666 59.2335L28.5456 56.4416L28.5456 56.4416L28.2666 59.2335ZM27.0293 58.9014L24.9487 60.7839L24.949 60.7842L27.0293 58.9014ZM27.0293 48.587L24.9489 46.7043L24.9486 46.7046L27.0293 48.587ZM28.2656 48.2549L27.9867 45.463L27.9864 45.4631L28.2656 48.2549ZM34.9805 47.584L35.2594 50.376L35.2597 50.3759L34.9805 47.584ZM37.1279 46.9444L39.7194 48.02L39.7201 48.0182L37.1279 46.9444ZM36.0615 44.9727L33.8898 46.7493L33.8899 46.7493L36.0615 44.9727ZM31.7891 39.7501L33.9608 37.9735L33.9607 37.9734L31.7891 39.7501ZM31.1494 38.6407L28.3471 38.4998L28.3471 38.5009L31.1494 38.6407ZM31.8955 37.6006L29.9115 35.6166L29.9114 35.6168L31.8955 37.6006ZM37.4014 32.0948L39.3854 34.0788L39.3855 34.0787L37.4014 32.0948ZM38.4414 31.3477L38.3015 28.5454L38.3003 28.5455L38.4414 31.3477ZM39.5508 31.9874L41.3276 29.8158L41.3275 29.8158L39.5508 31.9874ZM44.7725 36.2598L42.9957 38.4314L42.9957 38.4314L44.7725 36.2598ZM46.7441 37.3262L47.8178 39.9185L47.8195 39.9178L46.7441 37.3262ZM47.3838 35.1788L50.1757 35.458L50.1757 35.4578L47.3838 35.1788ZM48.0547 28.4659L45.2628 28.1866L45.2628 28.1869L48.0547 28.4659ZM48.3867 27.2296L46.5044 25.1488L46.504 25.1492L48.3867 27.2296ZM53.5439 43.0557V40.2499L53.5439 40.2499L53.5439 43.0557ZM42.8555 53.7442L40.0497 53.7442V53.7442H42.8555ZM53.5439 64.4327L53.5439 67.2385H53.5439V64.4327ZM64.2324 53.7442H67.0382V53.7442L64.2324 53.7442ZM57.4375 27.0225V29.8283C57.6201 29.8283 57.7338 29.8285 57.8257 29.8307C57.9185 29.833 57.9233 29.8362 57.8842 29.8312C57.8427 29.8259 57.6926 29.8043 57.4923 29.7268C57.2728 29.642 57.0361 29.5069 56.8187 29.3101L58.7012 27.2296L60.5837 25.149C59.8804 24.5127 59.1006 24.3298 58.5998 24.2654C58.1783 24.2112 57.7069 24.2167 57.4375 24.2167V27.0225ZM58.7012 27.2296L56.8184 29.3099C56.6009 29.113 56.443 28.891 56.3368 28.6813C56.2399 28.4899 56.2034 28.3428 56.194 28.3021C56.1851 28.2638 56.1889 28.2683 56.2003 28.3602C56.2117 28.4512 56.2232 28.5644 56.2413 28.7458L59.0332 28.4669L61.8251 28.1879C61.7983 27.9191 61.7568 27.4496 61.6607 27.0351C61.5467 26.5433 61.2871 25.7856 60.584 25.1493L58.7012 27.2296ZM59.0332 28.4669L56.2413 28.7459L56.9122 35.4588L59.7041 35.1797L62.496 34.9007L61.8251 28.1878L59.0332 28.4669ZM59.7041 35.1797L56.9122 35.4587C56.9681 36.0182 57.0346 36.7597 57.185 37.359C57.3362 37.9611 57.7819 39.303 59.2669 39.9195L60.3428 37.3282L61.4186 34.7368C61.6316 34.8252 61.8362 34.9492 62.0197 35.1066C62.2006 35.2616 62.3316 35.4238 62.4234 35.5642C62.5128 35.701 62.5642 35.8159 62.5911 35.8844C62.605 35.9196 62.6142 35.9471 62.6196 35.9645C62.6251 35.9819 62.6276 35.9919 62.6278 35.9929C62.6279 35.9931 62.6223 35.9702 62.6129 35.9152C62.6036 35.8608 62.5928 35.7879 62.5805 35.6899C62.5546 35.4856 62.5298 35.2394 62.496 34.9008L59.7041 35.1797ZM60.3428 37.3282L59.2689 39.9203C60.7537 40.5355 62.0178 39.9042 62.5522 39.5848C63.0834 39.2673 63.6552 38.79 64.0911 38.4335L62.3145 36.2618L60.5378 34.0901C60.2746 34.3054 60.083 34.4619 59.9205 34.5878C59.8425 34.6482 59.7835 34.692 59.7386 34.7238C59.6931 34.756 59.6731 34.768 59.6734 34.7679C59.6744 34.7673 59.6834 34.762 59.6996 34.7534C59.7159 34.745 59.7418 34.732 59.7767 34.7169C59.8444 34.6876 59.9621 34.6428 60.1222 34.6094C60.2865 34.5752 60.4938 34.5534 60.7311 34.5719C60.972 34.5907 61.204 34.6479 61.4167 34.736L60.3428 37.3282ZM62.3145 36.2618L64.091 38.4335L69.3137 34.161L67.5371 31.9893L65.7605 29.8176L60.5379 34.0901L62.3145 36.2618ZM67.5371 31.9893L69.3137 34.161C69.4548 34.0456 69.5429 33.9738 69.6152 33.9175C69.6883 33.8607 69.694 33.8602 69.6605 33.8811C69.6249 33.9033 69.495 33.9815 69.2911 34.0482C69.0677 34.1214 68.7992 34.1666 68.5067 34.152L68.6465 31.3497L68.7862 28.5473C67.8398 28.5001 67.1207 28.8517 66.692 29.1189C66.3309 29.344 65.9695 29.6466 65.7605 29.8176L67.5371 31.9893ZM68.6465 31.3497L68.5056 34.1519C68.2143 34.1373 67.9525 34.066 67.7379 33.9713C67.542 33.8848 67.4206 33.7943 67.3871 33.7685C67.3556 33.7443 67.3611 33.7451 67.4278 33.8086C67.4938 33.8713 67.5741 33.9514 67.7026 34.0799L69.6865 32.0958L71.6704 30.1116C71.4786 29.9199 71.1493 29.5831 70.8116 29.323C70.4108 29.0142 69.7313 28.5949 68.7874 28.5474L68.6465 31.3497ZM69.6865 32.0958L67.7025 34.0798L73.2084 39.5856L75.1924 37.6016L77.1764 35.6176L71.6705 30.1118L69.6865 32.0958ZM75.1924 37.6016L73.2085 39.5858C73.3374 39.7146 73.4177 39.7951 73.4809 39.8615C73.5447 39.9285 73.5458 39.9343 73.5217 39.9031C73.4961 39.8699 73.4054 39.7486 73.3187 39.5525C73.2237 39.3376 73.1519 39.0751 73.1372 38.7826L75.9395 38.6417L78.7417 38.5007C78.6941 37.5545 78.2726 36.8742 77.9642 36.4745C77.7043 36.1378 77.3672 35.8085 77.1763 35.6175L75.1924 37.6016ZM75.9395 38.6417L73.1371 38.7814C73.1226 38.4892 73.1677 38.2208 73.2408 37.9973C73.3075 37.7934 73.3858 37.6635 73.408 37.6278C73.429 37.5942 73.4286 37.5998 73.3718 37.6728C73.3156 37.7451 73.2438 37.8331 73.1283 37.9741L75.2998 39.751L77.4713 41.5279C77.6424 41.3187 77.9451 40.9574 78.1703 40.596C78.4378 40.167 78.789 39.448 78.7418 38.5019L75.9395 38.6417ZM75.2998 39.751L73.1285 37.974L68.855 43.1957L71.0264 44.9727L73.1977 46.7497L77.4711 41.5281L75.2998 39.751ZM71.0264 44.9727L68.8549 43.1958C68.4981 43.6319 68.0208 44.2036 67.7032 44.7351C67.3837 45.2697 66.7529 46.5336 67.3677 48.018L69.96 46.9444L72.5522 45.8708C72.6403 46.0834 72.6974 46.3153 72.7162 46.5561C72.7347 46.7933 72.713 47.0005 72.6788 47.1648C72.6455 47.3248 72.6007 47.4425 72.5713 47.5102C72.5562 47.5451 72.5433 47.5711 72.5348 47.5873C72.5263 47.6036 72.5209 47.6126 72.5203 47.6136C72.5202 47.6139 72.5322 47.5939 72.5643 47.5485C72.5961 47.5036 72.6399 47.4446 72.7003 47.3667C72.8261 47.2043 72.9825 47.0127 73.1978 46.7496L71.0264 44.9727ZM69.96 46.9444L67.3683 48.0196C67.9841 49.5039 69.3247 49.9505 69.9275 50.1022C70.5274 50.2531 71.2689 50.3199 71.8292 50.3759L72.1084 47.584L72.3876 44.7922C72.0493 44.7583 71.8032 44.7335 71.5992 44.7076C71.5012 44.6952 71.4285 44.6844 71.3742 44.6752C71.3192 44.6658 71.2965 44.6601 71.2967 44.6602C71.2977 44.6605 71.3078 44.663 71.3253 44.6685C71.3427 44.6739 71.3701 44.6831 71.4054 44.697C71.4739 44.7241 71.5887 44.7755 71.7253 44.8649C71.8657 44.9567 72.0275 45.0877 72.1824 45.2685C72.3395 45.452 72.4633 45.6564 72.5516 45.8692L69.96 46.9444ZM72.1084 47.584L71.8294 50.3759L78.5433 51.0468L78.8223 48.2549L79.1013 45.463L72.3874 44.7921L72.1084 47.584ZM78.8223 48.2549L78.5431 51.0468C78.7244 51.065 78.8374 51.0764 78.9283 51.0878C79.02 51.0992 79.0243 51.103 78.9858 51.094C78.9448 51.0845 78.7976 51.048 78.6062 50.9509C78.3964 50.8446 78.1746 50.6867 77.9782 50.4697L80.0586 48.587L82.139 46.7043C81.5032 46.0018 80.7464 45.7418 80.2541 45.6276C79.8396 45.5314 79.3701 45.4899 79.1015 45.4631L78.8223 48.2549ZM80.0586 48.587L77.9779 50.4693C77.7812 50.2519 77.6461 50.0152 77.5613 49.7957C77.4839 49.5955 77.4622 49.4454 77.4569 49.404C77.4519 49.3649 77.4552 49.3698 77.4574 49.4625C77.4597 49.5544 77.4598 49.6681 77.4598 49.8506H80.2656H83.0714C83.0714 49.5812 83.0769 49.1099 83.0227 48.6883C82.9583 48.1877 82.7755 47.4079 82.1393 46.7046L80.0586 48.587ZM80.2656 49.8506H77.4598V57.6378H80.2656H83.0714V49.8506H80.2656ZM80.2656 57.6378H77.4598C77.4598 57.8203 77.4597 57.9341 77.4574 58.0259C77.4552 58.1187 77.4519 58.1235 77.4569 58.0845C77.4623 58.043 77.4839 57.8929 77.5613 57.6926C77.6462 57.4731 77.7813 57.2364 77.978 57.019L80.0586 58.9014L82.1392 60.7839C82.7755 60.0806 82.9583 59.3008 83.0227 58.8001C83.0769 58.3785 83.0714 57.9072 83.0714 57.6378H80.2656ZM80.0586 58.9014L77.9783 57.0186C78.1751 56.8012 78.3972 56.6432 78.6069 56.537C78.7983 56.4402 78.9453 56.4037 78.986 56.3943C79.0244 56.3854 79.0199 56.3891 78.9279 56.4006C78.8369 56.4119 78.7238 56.4234 78.5423 56.4416L78.8213 59.2335L79.1003 62.0254C79.369 61.9985 79.8386 61.957 80.2531 61.861C80.7448 61.747 81.5025 61.4873 82.1389 60.7842L80.0586 58.9014ZM78.8213 59.2335L78.5422 56.4416L71.8303 57.1125L72.1094 59.9044L72.3884 62.6963L79.1004 62.0254L78.8213 59.2335ZM72.1094 59.9044L71.8304 57.1125C71.271 57.1684 70.5294 57.2349 69.9301 57.3853C69.3279 57.5364 67.986 57.9822 67.3695 59.4674L69.9609 60.543L72.5524 61.6187C72.464 61.8316 72.34 62.0362 72.1827 62.2198C72.0276 62.4007 71.8655 62.5317 71.725 62.6236C71.5882 62.713 71.4732 62.7644 71.4047 62.7914C71.3694 62.8053 71.342 62.8144 71.3246 62.8199C71.3072 62.8253 71.2971 62.8279 71.2961 62.8281C71.296 62.8281 71.3188 62.8225 71.3739 62.8131C71.4282 62.8039 71.5011 62.7931 71.5992 62.7807C71.8035 62.7549 72.0497 62.7301 72.3884 62.6963L72.1094 59.9044ZM69.9609 60.543L67.3687 59.4692C66.7537 60.9539 67.3849 62.2179 67.7043 62.7524C68.0218 63.2837 68.4991 63.8555 68.8558 64.2915L71.0273 62.5147L73.1989 60.738C72.9836 60.4748 72.8272 60.2832 72.7013 60.1208C72.6409 60.0428 72.5971 59.9838 72.5653 59.9389C72.5332 59.8934 72.5211 59.8735 72.5213 59.8738C72.5219 59.8747 72.5272 59.8837 72.5357 59.9C72.5442 59.9162 72.5571 59.9422 72.5723 59.9771C72.6016 60.0447 72.6464 60.1625 72.6797 60.3225C72.714 60.4868 72.7357 60.6941 72.7172 60.9314C72.6984 61.1722 72.6412 61.4042 72.5531 61.6169L69.9609 60.543ZM71.0273 62.5147L68.8558 64.2915L73.1283 69.5132L75.2998 67.7364L77.4713 65.9596L73.1989 60.7379L71.0273 62.5147ZM75.2998 67.7364L73.1282 69.5131C73.2437 69.6542 73.3155 69.7423 73.3717 69.8146C73.4286 69.8876 73.429 69.8933 73.4081 69.8597C73.3858 69.8241 73.3076 69.6941 73.2408 69.4902C73.1677 69.2667 73.1225 68.9982 73.1371 68.7059L75.9395 68.8458L78.7418 68.9856C78.789 68.0393 78.4377 67.3203 78.1703 66.8913C77.9451 66.5301 77.6425 66.1687 77.4714 65.9596L75.2998 67.7364ZM75.9395 68.8458L73.1372 68.7047C73.1519 68.4122 73.2237 68.1497 73.3187 67.9348C73.4054 67.7388 73.4961 67.6175 73.5217 67.5844C73.5457 67.5532 73.5447 67.5589 73.4808 67.626C73.4176 67.6923 73.3374 67.7728 73.2085 67.9017L75.1924 69.8858L77.1763 71.8699C77.3673 71.6789 77.7043 71.3496 77.9642 71.0129C78.2726 70.6133 78.6941 69.933 78.7417 68.9868L75.9395 68.8458ZM75.1924 69.8858L73.2084 67.9018L67.7025 73.4077L69.6865 75.3917L71.6705 77.3757L77.1764 71.8698L75.1924 69.8858ZM69.6865 75.3917L67.7026 73.4075C67.5742 73.536 67.4938 73.6161 67.4278 73.6789C67.3611 73.7423 67.3556 73.7432 67.3871 73.7189C67.4206 73.6931 67.542 73.6026 67.7379 73.5161C67.9525 73.4214 68.2143 73.3501 68.5056 73.3355L68.6465 76.1378L68.7874 78.94C69.7313 78.8926 70.4108 78.4732 70.8116 78.1645C71.1493 77.9043 71.4786 77.5676 71.6704 77.3758L69.6865 75.3917ZM68.6465 76.1378L68.5067 73.3354C68.7992 73.3208 69.0677 73.366 69.2911 73.4392C69.495 73.5059 69.6249 73.5841 69.6605 73.6063C69.694 73.6272 69.6883 73.6268 69.6152 73.5699C69.5429 73.5137 69.4548 73.4419 69.3137 73.3264L67.5371 75.4981L65.7605 77.6698C65.9695 77.8408 66.3309 78.1434 66.692 78.3685C67.1207 78.6357 67.8398 78.9873 68.7862 78.9401L68.6465 76.1378ZM67.5371 75.4981L69.3137 73.3264L64.091 69.0539L62.3145 71.2256L60.5379 73.3973L65.7605 77.6698L67.5371 75.4981ZM62.3145 71.2256L64.0911 69.054C63.6552 68.6974 63.0834 68.2201 62.5522 67.9026C62.0178 67.5833 60.7537 66.9519 59.2689 67.5671L60.3428 70.1592L61.4167 72.7514C61.204 72.8395 60.972 72.8967 60.7311 72.9155C60.4938 72.934 60.2865 72.9123 60.1222 72.878C59.9621 72.8447 59.8444 72.7999 59.7767 72.7705C59.7418 72.7554 59.7159 72.7425 59.6996 72.734C59.6833 72.7255 59.6744 72.7201 59.6734 72.7196C59.6731 72.7194 59.6931 72.7314 59.7386 72.7636C59.7835 72.7954 59.8425 72.8392 59.9205 72.8996C60.083 73.0255 60.2746 73.182 60.5378 73.3973L62.3145 71.2256ZM60.3428 70.1592L59.2669 67.5679C57.7819 68.1844 57.3362 69.5263 57.185 70.1284C57.0346 70.7278 56.9681 71.4693 56.9122 72.0287L59.7041 72.3077L62.496 72.5866C62.5298 72.248 62.5546 72.0018 62.5804 71.7975C62.5928 71.6995 62.6036 71.6266 62.6129 71.5723C62.6222 71.5172 62.6279 71.4944 62.6278 71.4945C62.6276 71.4955 62.625 71.5055 62.6196 71.523C62.6142 71.5404 62.605 71.5678 62.5911 71.6031C62.5641 71.6715 62.5127 71.7864 62.4234 71.9232C62.3316 72.0637 62.2006 72.2258 62.0197 72.3808C61.8362 72.5382 61.6316 72.6622 61.4186 72.7506L60.3428 70.1592ZM59.7041 72.3077L56.9122 72.0287L56.2413 78.7426L59.0332 79.0215L61.8251 79.3005L62.496 72.5867L59.7041 72.3077ZM59.0332 79.0215L56.2413 78.7426C56.2232 78.924 56.2117 79.0372 56.2003 79.1282C56.1889 79.2201 56.1851 79.2246 56.194 79.1863C56.2035 79.1455 56.2399 78.9985 56.3368 78.8071C56.443 78.5974 56.6009 78.3754 56.8184 78.1786L58.7012 80.2589L60.584 82.3391C61.2871 81.7028 61.5467 80.9451 61.6607 80.4533C61.7568 80.0388 61.7983 79.5693 61.8251 79.3005L59.0332 79.0215ZM58.7012 80.2589L56.8187 78.1783C57.0361 77.9816 57.2728 77.8464 57.4923 77.7616C57.6926 77.6842 57.8427 77.6625 57.8842 77.6572C57.9233 77.6522 57.9185 77.6554 57.8257 77.6577C57.7338 77.6599 57.6201 77.6601 57.4375 77.6601V80.4659V83.2717C57.7069 83.2717 58.1783 83.2772 58.5998 83.223C59.1006 83.1586 59.8804 82.9757 60.5837 82.3394L58.7012 80.2589ZM57.4375 80.4659V77.6601H49.6504V80.4659V83.2717H57.4375V80.4659ZM49.6504 80.4659V77.6601C49.4679 77.6601 49.3542 77.6599 49.2624 77.6577C49.1696 77.6554 49.1648 77.6521 49.2038 77.6572C49.2452 77.6625 49.3952 77.6841 49.5954 77.7615C49.8147 77.8462 50.0514 77.9813 50.2689 78.178L48.3867 80.2589L46.5045 82.3397C47.2078 82.9758 47.9876 83.1586 48.488 83.2229C48.9096 83.2772 49.3809 83.2717 49.6504 83.2717V80.4659ZM48.3867 80.2589L50.2693 78.1784C50.4865 78.3749 50.6444 78.5967 50.7507 78.8065C50.8478 78.998 50.8843 79.1452 50.8938 79.1862C50.9027 79.2247 50.899 79.2203 50.8875 79.1285C50.8762 79.0375 50.8647 78.9245 50.8465 78.743L48.0547 79.0225L45.2628 79.302C45.2897 79.5704 45.3312 80.0399 45.4273 80.4542C45.5415 80.9464 45.8014 81.7035 46.5041 82.3393L48.3867 80.2589ZM48.0547 79.0225L50.8465 78.7431L50.1747 72.0293L47.3828 72.3087L44.591 72.588L45.2628 79.3019L48.0547 79.0225ZM47.3828 72.3087L50.1747 72.0292C50.1186 71.4692 50.0518 70.7278 49.9009 70.128C49.749 69.5246 49.302 68.1849 47.8181 67.5694L46.7432 70.1612L45.6683 72.7529C45.4557 72.6648 45.2513 72.5411 45.0679 72.3841C44.8871 72.2293 44.756 72.0675 44.6641 71.9271C44.5746 71.7903 44.523 71.6754 44.496 71.6068C44.482 71.5715 44.4728 71.544 44.4673 71.5265C44.4618 71.509 44.4593 71.4989 44.459 71.4978C44.4589 71.4975 44.4645 71.5202 44.4739 71.5751C44.4832 71.6293 44.494 71.702 44.5064 71.7998C44.5322 72.0038 44.5571 72.2498 44.591 72.5881L47.3828 72.3087ZM46.7432 70.1612L47.8167 67.5689C46.3322 66.9541 45.0683 67.5851 44.5338 67.9045C44.0024 68.2221 43.4307 68.6993 42.9946 69.0561L44.7715 71.2276L46.5483 73.3991C46.8114 73.1838 47.003 73.0274 47.1654 72.9016C47.2433 72.8412 47.3023 72.7974 47.3472 72.7656C47.3926 72.7335 47.4126 72.7214 47.4123 72.7216C47.4113 72.7222 47.4023 72.7275 47.3861 72.736C47.3698 72.7445 47.3439 72.7575 47.309 72.7726C47.2414 72.8019 47.1236 72.8467 46.9637 72.88C46.7994 72.9142 46.5923 72.936 46.355 72.9175C46.1143 72.8987 45.8823 72.8416 45.6696 72.7535L46.7432 70.1612ZM44.7715 71.2276L42.9945 69.0562L37.7738 73.3287L39.5508 75.5001L41.3278 77.6714L46.5485 73.399L44.7715 71.2276ZM39.5508 75.5001L37.7739 73.3286C37.6329 73.444 37.5448 73.5158 37.4726 73.572C37.3996 73.6288 37.3939 73.6292 37.4275 73.6083C37.4632 73.586 37.5931 73.5078 37.7971 73.4411C38.0206 73.3679 38.2889 73.3228 38.5812 73.3374L38.4414 76.1397L38.3016 78.942C39.2478 78.9892 39.9668 78.638 40.3958 78.3706C40.7571 78.1454 41.1185 77.8427 41.3276 77.6715L39.5508 75.5001ZM38.4414 76.1397L38.5824 73.3374C38.8749 73.3522 39.1374 73.4239 39.3523 73.519C39.5484 73.6057 39.6697 73.6964 39.7028 73.722C39.734 73.746 39.7283 73.745 39.6612 73.6811C39.5949 73.6179 39.5144 73.5377 39.3855 73.4088L37.4014 75.3926L35.4172 77.3765C35.6082 77.5675 35.9375 77.9045 36.2743 78.1644C36.674 78.4729 37.3542 78.8944 38.3005 78.942L38.4414 76.1397ZM37.4014 75.3926L39.3854 73.4086L33.8795 67.9028L31.8955 69.8868L29.9115 71.8708L35.4174 77.3766L37.4014 75.3926ZM31.8955 69.8868L33.8796 67.9029C33.7512 67.7744 33.6711 67.694 33.6083 67.628C33.5448 67.5613 33.544 67.5558 33.5683 67.5874C33.5941 67.6208 33.6846 67.7422 33.771 67.9381C33.8657 68.1528 33.937 68.4145 33.9517 68.7058L31.1494 68.8467L28.3471 68.9877C28.3946 69.9316 28.814 70.611 29.1227 71.0118C29.3828 71.3495 29.7196 71.6789 29.9114 71.8707L31.8955 69.8868ZM31.1494 68.8467L33.9517 68.707C33.9663 68.9995 33.9211 69.268 33.848 69.4914C33.7812 69.6953 33.703 69.8251 33.6808 69.8607C33.6599 69.8942 33.6604 69.8885 33.7172 69.8155C33.7735 69.7431 33.8453 69.6551 33.9607 69.514L31.7891 67.7374L29.6174 65.9607C29.4464 66.1698 29.1438 66.5311 28.9187 66.8923C28.6514 67.3209 28.2999 68.04 28.3471 68.9865L31.1494 68.8467ZM31.7891 67.7374L33.9608 69.514L38.2332 64.2913L36.0615 62.5147L33.8898 60.7381L29.6174 65.9608L31.7891 67.7374ZM36.0615 62.5147L38.2332 64.2913C38.5898 63.8554 39.0671 63.2837 39.3845 62.7524C39.7039 62.2181 40.3352 60.9539 39.7201 59.4691L37.1279 60.543L34.5358 61.6169C34.4477 61.4042 34.3905 61.1722 34.3717 60.9314C34.3532 60.694 34.3749 60.4868 34.4091 60.3224C34.4425 60.1624 34.4873 60.0446 34.5167 59.9769C34.5318 59.9421 34.5447 59.9161 34.5532 59.8999C34.5617 59.8836 34.567 59.8746 34.5676 59.8737C34.5678 59.8734 34.5557 59.8934 34.5235 59.9388C34.4918 59.9837 34.448 60.0428 34.3875 60.1208C34.2616 60.2833 34.1052 60.4749 33.8899 60.7381L36.0615 62.5147ZM37.1279 60.543L39.7193 59.4672C39.1031 57.9829 37.7623 57.5368 37.1596 57.3854C36.5602 57.2349 35.8188 57.1683 35.2594 57.1125L34.9805 59.9044L34.7015 62.6963C35.04 62.7301 35.286 62.7549 35.4901 62.7807C35.5881 62.7931 35.6609 62.8038 35.7151 62.8131C35.7701 62.8224 35.7928 62.8281 35.7926 62.828C35.7915 62.8277 35.7815 62.8252 35.764 62.8197C35.7465 62.8143 35.7191 62.8051 35.6837 62.7912C35.6152 62.7641 35.5002 62.7127 35.3634 62.6232C35.2229 62.5314 35.0609 62.4003 34.906 62.2195C34.7487 62.036 34.6249 61.8316 34.5366 61.6189L37.1279 60.543ZM34.9805 59.9044L35.2595 57.1125L28.5456 56.4416L28.2666 59.2335L27.9876 62.0254L34.7015 62.6963L34.9805 59.9044ZM28.2666 59.2335L28.5456 56.4416C28.3641 56.4234 28.251 56.4119 28.16 56.4006C28.068 56.3891 28.0635 56.3854 28.1019 56.3943C28.1426 56.4037 28.2896 56.4402 28.481 56.5371C28.6907 56.6432 28.9128 56.8012 29.1096 57.0186L27.0293 58.9014L24.949 60.7842C25.5854 61.4873 26.3431 61.747 26.8348 61.861C27.2493 61.957 27.7189 61.9985 27.9876 62.0254L28.2666 59.2335ZM27.0293 58.9014L29.1099 57.0189C29.3066 57.2364 29.4417 57.4731 29.5266 57.6926C29.604 57.8929 29.6256 58.043 29.631 58.0845C29.636 58.1236 29.6327 58.1187 29.6305 58.026C29.6282 57.9341 29.6281 57.8204 29.6281 57.6378H26.8223H24.0165C24.0165 57.9072 24.011 58.3785 24.0652 58.8001C24.1296 59.3008 24.3124 60.0807 24.9487 60.7839L27.0293 58.9014ZM26.8223 57.6378H29.6281V49.8506H26.8223H24.0165V57.6378H26.8223ZM26.8223 49.8506H29.6281C29.6281 49.6681 29.6282 49.5544 29.6305 49.4625C29.6327 49.3698 29.636 49.3649 29.631 49.404C29.6256 49.4454 29.604 49.5955 29.5266 49.7957C29.4418 50.0152 29.3067 50.2519 29.11 50.4693L27.0293 48.587L24.9486 46.7046C24.3124 47.4079 24.1296 48.1877 24.0652 48.6883C24.011 49.1099 24.0165 49.5812 24.0165 49.8506H26.8223ZM27.0293 48.587L29.1097 50.4697C28.9132 50.6867 28.6915 50.8446 28.4817 50.9509C28.2903 51.048 28.1431 51.0845 28.1021 51.094C28.0636 51.103 28.0678 51.0992 28.1596 51.0878C28.2505 51.0764 28.3635 51.065 28.5448 51.0468L28.2656 48.2549L27.9864 45.4631C27.7178 45.4899 27.2483 45.5314 26.8338 45.6276C26.3415 45.7418 25.5847 46.0018 24.9489 46.7043L27.0293 48.587ZM28.2656 48.2549L28.5446 51.0469L35.2594 50.376L34.9805 47.584L34.7015 44.7921L27.9867 45.463L28.2656 48.2549ZM34.9805 47.584L35.2597 50.3759C35.8199 50.3199 36.5613 50.2531 37.1613 50.1021C37.7649 49.9501 39.1039 49.503 39.7194 48.02L37.1279 46.9444L34.5365 45.8688C34.6246 45.6564 34.7483 45.4521 34.9053 45.2688C35.0599 45.0882 35.2217 44.9572 35.362 44.8653C35.4987 44.7759 35.6135 44.7243 35.682 44.6973C35.7174 44.6833 35.7448 44.6741 35.7623 44.6686C35.7798 44.6631 35.7899 44.6606 35.791 44.6603C35.7914 44.6602 35.7687 44.6658 35.7139 44.6752C35.6597 44.6845 35.587 44.6952 35.4892 44.7077C35.2854 44.7335 35.0394 44.7583 34.7013 44.7922L34.9805 47.584ZM37.1279 46.9444L39.7201 48.0182C40.3352 46.5334 39.7038 45.2692 39.3845 44.735C39.067 44.2037 38.5898 43.632 38.2332 43.1961L36.0615 44.9727L33.8899 46.7493C34.1051 47.0125 34.2616 47.2041 34.3875 47.3666C34.4479 47.4446 34.4917 47.5036 34.5235 47.5485C34.5557 47.594 34.5677 47.614 34.5676 47.6137C34.567 47.6128 34.5617 47.6038 34.5532 47.5875C34.5447 47.5713 34.5318 47.5454 34.5166 47.5105C34.4873 47.4429 34.4425 47.3251 34.4092 47.1651C34.3749 47.0008 34.3532 46.7936 34.3717 46.5562C34.3904 46.3154 34.4476 46.0833 34.5357 45.8706L37.1279 46.9444ZM36.0615 44.9727L38.2332 43.1961L33.9608 37.9735L31.7891 39.7501L29.6174 41.5266L33.8898 46.7493L36.0615 44.9727ZM31.7891 39.7501L33.9607 37.9734C33.8453 37.8324 33.7735 37.7443 33.7172 37.672C33.6604 37.5989 33.6599 37.5932 33.6808 37.6267C33.703 37.6623 33.7812 37.7921 33.848 37.996C33.9211 38.2195 33.9663 38.4879 33.9517 38.7804L31.1494 38.6407L28.3471 38.5009C28.2999 39.4474 28.6514 40.1665 28.9187 40.5952C29.1438 40.9563 29.4464 41.3176 29.6174 41.5267L31.7891 39.7501ZM31.1494 38.6407L33.9517 38.7816C33.937 39.0729 33.8657 39.3347 33.771 39.5493C33.6846 39.7452 33.5941 39.8666 33.5683 39.9001C33.544 39.9316 33.5448 39.9261 33.6083 39.8594C33.6711 39.7934 33.7512 39.713 33.8796 39.5845L31.8955 37.6006L29.9114 35.6168C29.7196 35.8086 29.3828 36.1379 29.1227 36.4756C28.814 36.8764 28.3946 37.5558 28.3471 38.4998L31.1494 38.6407ZM31.8955 37.6006L33.8795 39.5847L39.3854 34.0788L37.4014 32.0948L35.4174 30.1108L29.9115 35.6166L31.8955 37.6006ZM37.4014 32.0948L39.3855 34.0787C39.5144 33.9498 39.5949 33.8695 39.6612 33.8063C39.7282 33.7425 39.734 33.7414 39.7028 33.7655C39.6697 33.7911 39.5484 33.8817 39.3523 33.9684C39.1375 34.0635 38.875 34.1352 38.5825 34.15L38.4414 31.3477L38.3003 28.5455C37.3541 28.5931 36.6739 29.0146 36.2743 29.323C35.9375 29.5829 35.6082 29.9199 35.4172 30.1109L37.4014 32.0948ZM38.4414 31.3477L38.5813 34.15C38.2889 34.1646 38.0205 34.1195 37.797 34.0463C37.593 33.9796 37.4631 33.9014 37.4274 33.8791C37.3939 33.8582 37.3996 33.8586 37.4726 33.9154C37.5449 33.9717 37.6329 34.0435 37.774 34.1589L39.5508 31.9874L41.3275 29.8158C41.1184 29.6447 40.757 29.342 40.3958 29.1169C39.9669 28.8495 39.2478 28.4982 38.3015 28.5454L38.4414 31.3477ZM39.5508 31.9874L37.774 34.1589L42.9957 38.4314L44.7725 36.2598L46.5492 34.0883L41.3276 29.8158L39.5508 31.9874ZM44.7725 36.2598L42.9957 38.4314C43.4317 38.7881 44.0034 39.2654 44.5348 39.5829C45.0692 39.9022 46.3332 40.5334 47.8178 39.9185L46.7441 37.3262L45.6704 34.734C45.8831 34.6459 46.1151 34.5887 46.3559 34.57C46.5932 34.5515 46.8004 34.5732 46.9647 34.6074C47.1247 34.6408 47.2425 34.6856 47.3101 34.7149C47.345 34.73 47.3709 34.7429 47.3872 34.7514C47.4034 34.7599 47.4124 34.7653 47.4134 34.7659C47.4137 34.766 47.3937 34.754 47.3482 34.7218C47.3034 34.69 47.2443 34.6463 47.1664 34.5858C47.0039 34.46 46.8123 34.3035 46.5492 34.0883L44.7725 36.2598ZM46.7441 37.3262L47.8195 39.9178C49.3028 39.3023 49.7499 37.963 49.9018 37.3595C50.0529 36.7596 50.1196 36.0182 50.1757 35.458L47.3838 35.1788L44.5919 34.8995C44.5581 35.2377 44.5332 35.4837 44.5074 35.6875C44.495 35.7854 44.4842 35.858 44.4749 35.9122C44.4656 35.9671 44.46 35.9897 44.46 35.9894C44.4603 35.9883 44.4629 35.9782 44.4684 35.9607C44.4738 35.9432 44.483 35.9157 44.497 35.8804C44.5241 35.8119 44.5756 35.697 44.6651 35.5603C44.7569 35.42 44.888 35.2582 45.0687 35.1035C45.252 34.9465 45.4563 34.8228 45.6688 34.7347L46.7441 37.3262ZM47.3838 35.1788L50.1757 35.4578L50.8466 28.7449L48.0547 28.4659L45.2628 28.1869L44.5919 34.8997L47.3838 35.1788ZM48.0547 28.4659L50.8466 28.7451C50.8647 28.5638 50.8762 28.4508 50.8875 28.3599C50.899 28.2681 50.9027 28.2638 50.8938 28.3023C50.8843 28.3433 50.8477 28.4905 50.7507 28.682C50.6444 28.8918 50.4865 29.1135 50.2694 29.31L48.3867 27.2296L46.504 25.1492C45.8015 25.7849 45.5416 26.5418 45.4274 27.0341C45.3312 27.4486 45.2897 27.918 45.2628 28.1866L48.0547 28.4659ZM48.3867 27.2296L50.269 29.3103C50.0516 29.507 49.8149 29.6421 49.5954 29.7269C49.3952 29.8043 49.2452 29.8259 49.2037 29.8312C49.1647 29.8363 49.1695 29.833 49.2623 29.8307C49.3541 29.8285 49.4679 29.8283 49.6504 29.8283V27.0225V24.2167C49.3809 24.2167 48.9096 24.2112 48.488 24.2654C47.9874 24.3298 47.2077 24.5126 46.5044 25.1488L48.3867 27.2296ZM49.6504 27.0225V29.8283H57.4375V27.0225V24.2167H49.6504V27.0225ZM53.5439 43.0557L53.5439 40.2499C46.0912 40.25 40.0498 46.2915 40.0497 53.7442L42.8555 53.7442L45.6613 53.7442C45.6613 49.3907 49.1904 45.8616 53.544 45.8615L53.5439 43.0557ZM42.8555 53.7442H40.0497C40.0497 61.197 46.0912 67.2384 53.5439 67.2385L53.5439 64.4327L53.544 61.6269C49.1903 61.6268 45.6613 58.0978 45.6613 53.7442H42.8555ZM53.5439 64.4327V67.2385C60.9968 67.2385 67.0382 61.1971 67.0382 53.7442H64.2324H61.4266C61.4266 58.0979 57.8976 61.6269 53.5439 61.6269V64.4327ZM64.2324 53.7442L67.0382 53.7442C67.0381 46.2914 60.9968 40.2499 53.5439 40.2499V43.0557V45.8615C57.8975 45.8615 61.4266 49.3906 61.4266 53.7442L64.2324 53.7442Z" fill="#204B66"/>
<path d="M6.9733 74.9883C-0.495282 56.6362 3.21548 34.8001 18.1056 19.9101C37.9381 0.0774783 70.0931 0.0774795 89.9257 19.9101" stroke="#204B66" stroke-width="7" stroke-linecap="round"/>
<line x1="91.5137" y1="3.88538" x2="91.5137" y2="21.7368" stroke="#204B66" stroke-width="7" stroke-linecap="round"/>
<line x1="3.5" y1="-3.5" x2="21.3514" y2="-3.5" transform="matrix(1 2.18557e-08 2.18557e-08 -1 68.7754 20.0746)" stroke="#204B66" stroke-width="7" stroke-linecap="round"/>
<path d="M100.916 34.0117C108.385 52.3638 104.674 74.1999 89.7841 89.0899C69.9515 108.923 37.7965 108.923 17.964 89.0899" stroke="#204B66" stroke-width="7" stroke-linecap="round"/>
<line x1="16.375" y1="105.115" x2="16.375" y2="87.2632" stroke="#204B66" stroke-width="7" stroke-linecap="round"/>
<line x1="3.5" y1="-3.5" x2="21.3514" y2="-3.5" transform="matrix(-1 -2.18557e-08 -2.18557e-08 1 39.1143 88.9254)" stroke="#204B66" stroke-width="7" stroke-linecap="round"/>
</g>
<defs>
<clipPath id="clip0_1353_5590">
<rect width="109" height="109" fill="white"/>
</clipPath>
</defs>
</svg>
