<svg width="110" height="110" viewBox="0 0 110 110" fill="none" xmlns="http://www.w3.org/2000/svg">
<rect x="26" y="26" width="58.1914" height="58.1914" rx="16.7176" stroke="#204B66" stroke-width="6.63293"/>
<line x1="88.7315" y1="5.54779" x2="105.375" y2="5.54779" stroke="#204B66" stroke-width="6.63293" stroke-linecap="round"/>
<line x1="3.31646" y1="-3.31646" x2="19.9601" y2="-3.31646" transform="matrix(1 -8.74228e-08 -8.74228e-08 -1 85.415 101.39)" stroke="#204B66" stroke-width="6.63293" stroke-linecap="round"/>
<line x1="105.374" y1="22.9601" x2="105.374" y2="6.31651" stroke="#204B66" stroke-width="6.63293" stroke-linecap="round"/>
<line x1="3.31646" y1="-3.31646" x2="19.9601" y2="-3.31646" transform="matrix(4.37114e-08 1 1 -4.37114e-08 108.69 84)" stroke="#204B66" stroke-width="6.63293" stroke-linecap="round"/>
<line x1="3.31646" y1="-3.31646" x2="19.9601" y2="-3.31646" transform="matrix(-1 8.74228e-08 8.74228e-08 1 25.2773 8.86426)" stroke="#204B66" stroke-width="6.63293" stroke-linecap="round"/>
<line x1="21.9609" y1="104.707" x2="5.31724" y2="104.707" stroke="#204B66" stroke-width="6.63293" stroke-linecap="round"/>
<line x1="3.31646" y1="-3.31646" x2="19.9601" y2="-3.31646" transform="matrix(-4.37114e-08 -1 -1 4.37114e-08 2 26.2766)" stroke="#204B66" stroke-width="6.63293" stroke-linecap="round"/>
<line x1="5.31646" y1="87.3165" x2="5.31646" y2="103.96" stroke="#204B66" stroke-width="6.63293" stroke-linecap="round"/>
</svg>
