<svg width="110" height="110" viewBox="0 0 110 110" fill="none" xmlns="http://www.w3.org/2000/svg">
<g clip-path="url(#clip0_1353_5172)">
<rect x="35.4238" y="6.3125" width="68.2641" height="68.2641" rx="11.9515" stroke="#204B66" stroke-width="7.42752"/>
<path d="M23.9965 106.063H3.93555V86.002" stroke="#204B66" stroke-width="7.42752" stroke-linejoin="round"/>
<path d="M23.9965 86.003V3.93555H3.93555V86.003" stroke="#204B66" stroke-width="7.42752" stroke-linejoin="round"/>
<path d="M14.878 12.9874C12.8269 12.9874 11.1642 14.6501 11.1642 16.7012C11.1642 18.7522 12.8269 20.4149 14.878 20.4149L14.878 16.7012L14.878 12.9874ZM25.8203 16.7012L25.8203 12.9874L14.878 12.9874L14.878 16.7012L14.878 20.4149L25.8203 20.4149L25.8203 16.7012Z" fill="#204B66"/>
<path d="M98.8349 95.1201C98.8349 97.1711 97.1721 98.8338 95.1211 98.8338C93.07 98.8338 91.4073 97.1711 91.4073 95.1201L95.1211 95.1201L98.8349 95.1201ZM95.1211 84.1777L98.8349 84.1777L98.8349 95.1201L95.1211 95.1201L91.4073 95.1201L91.4073 84.1777L95.1211 84.1777Z" fill="#204B66"/>
<path d="M14.878 34.8741C12.8269 34.8741 11.1642 36.5368 11.1642 38.5879C11.1642 40.6389 12.8269 42.3017 14.878 42.3017L14.878 38.5879L14.878 34.8741ZM25.8203 38.5879L25.8203 34.8741L14.878 34.8741L14.878 38.5879L14.878 42.3017L25.8203 42.3017L25.8203 38.5879Z" fill="#204B66"/>
<path d="M76.9501 95.1201C76.9501 97.1711 75.2874 98.8338 73.2363 98.8338C71.1853 98.8338 69.5226 97.1711 69.5226 95.1201L73.2363 95.1201L76.9501 95.1201ZM73.2363 84.1777L76.9501 84.1777L76.9501 95.1201L73.2363 95.1201L69.5226 95.1201L69.5226 84.1777L73.2363 84.1777Z" fill="#204B66"/>
<path d="M14.878 54.9347C12.8269 54.9347 11.1642 56.5974 11.1642 58.6484C11.1642 60.6995 12.8269 62.3622 14.878 62.3622L14.878 58.6484L14.878 54.9347ZM25.8203 58.6484L25.8203 54.9347L14.878 54.9347L14.878 58.6484L14.878 62.3622L25.8203 62.3622L25.8203 58.6484Z" fill="#204B66"/>
<path d="M56.8895 95.1201C56.8895 97.1711 55.2268 98.8338 53.1758 98.8338C51.1247 98.8338 49.462 97.1711 49.462 95.1201L53.1758 95.1201L56.8895 95.1201ZM53.1758 84.1777L56.8895 84.1777L56.8895 95.1201L53.1758 95.1201L49.462 95.1201L49.462 84.1777L53.1758 84.1777Z" fill="#204B66"/>
<path d="M13.0543 74.9933C11.0032 74.9933 9.3405 76.656 9.3405 78.707C9.3405 80.7581 11.0032 82.4208 13.0543 82.4208L13.0543 78.707L13.0543 74.9933ZM25.8203 78.707L25.8203 74.9933L13.0543 74.9933L13.0543 78.707L13.0543 82.4208L25.8203 82.4208L25.8203 78.707Z" fill="#204B66"/>
<path d="M36.828 96.9438C36.828 98.9948 35.1653 100.658 33.1143 100.658C31.0632 100.658 29.4005 98.9948 29.4005 96.9438L33.1143 96.9438L36.828 96.9438ZM33.1143 84.1777L36.828 84.1777L36.828 96.9438L33.1143 96.9438L29.4005 96.9438L29.4005 84.1777L33.1143 84.1777Z" fill="#204B66"/>
<path d="M106.064 86.0035L109.778 86.0035C109.778 83.9525 108.115 82.2897 106.064 82.2897L106.064 86.0035ZM106.064 106.064L106.064 109.778C108.115 109.778 109.778 108.116 109.778 106.064L106.064 106.064ZM23.9965 82.2897C21.9454 82.2897 20.2827 83.9525 20.2827 86.0035C20.2827 88.0546 21.9454 89.7173 23.9965 89.7173L23.9965 86.0035L23.9965 82.2897ZM106.064 86.0035L102.35 86.0035L102.35 106.064L106.064 106.064L109.778 106.064L109.778 86.0035L106.064 86.0035ZM106.064 106.064L106.064 102.351L3.93555 102.351L3.93555 106.064L3.93555 109.778L106.064 109.778L106.064 106.064ZM23.9965 86.0035L23.9965 89.7173L106.064 89.7173L106.064 86.0035L106.064 82.2897L23.9965 82.2897L23.9965 86.0035Z" fill="#204B66"/>
</g>
<defs>
<clipPath id="clip0_1353_5172">
<rect width="110" height="110" fill="white"/>
</clipPath>
</defs>
</svg>
