<svg width="110" height="110" viewBox="0 0 110 110" fill="none" xmlns="http://www.w3.org/2000/svg">
<rect width="110" height="110" fill="white"/>
<path d="M62.1682 4H38.6702C28.0488 4 22.738 4 19.4383 7.29967C16.1387 10.5993 16.1387 15.9101 16.1387 26.5316V82.8605C16.1387 93.4819 16.1387 98.7927 19.4383 102.092C22.738 105.392 28.0488 105.392 38.6702 105.392H72.4676C83.0891 105.392 88.3998 105.392 91.6995 102.092C94.9991 98.7927 94.9991 93.4819 94.9991 82.8605V36.8309C94.9991 34.5284 94.9991 33.3772 94.5704 32.3421C94.1416 31.3069 93.3275 30.4929 91.6995 28.8648L70.1344 7.29967C68.5063 5.67159 67.6922 4.85756 66.6571 4.42878C65.6219 4 64.4707 4 62.1682 4Z" stroke="#204B66" stroke-width="7.37397"/>
<path d="M61.2031 4V26.5316C61.2031 31.8423 61.2031 34.4977 62.853 36.1475C64.5028 37.7973 67.1582 37.7973 72.4689 37.7973H95.0005" stroke="#204B66" stroke-width="7.37397"/>
<mask id="path-3-inside-1_1353_5179" fill="white">
<rect x="6" y="64.1191" width="71.2817" height="32.7732" rx="4.09665"/>
</mask>
<rect x="6" y="64.1191" width="71.2817" height="32.7732" rx="4.09665" fill="#204B66" stroke="#204B66" stroke-width="9.83195" mask="url(#path-3-inside-1_1353_5179)"/>
<path d="M28.7638 88.6071C27.7719 88.6071 26.8793 88.4866 26.0858 88.2458C25.2923 87.9907 24.5343 87.5515 23.8117 86.928C23.6275 86.7722 23.4858 86.5951 23.3866 86.3967C23.2874 86.1983 23.2378 86 23.2378 85.8016C23.2378 85.4757 23.3512 85.1923 23.5779 84.9515C23.8188 84.6964 24.1163 84.5689 24.4705 84.5689C24.7398 84.5689 24.9806 84.6539 25.1932 84.8239C25.7316 85.2632 26.2629 85.5961 26.7872 85.8229C27.3256 86.0496 27.9845 86.1629 28.7638 86.1629C29.288 86.1629 29.7698 86.085 30.209 85.9291C30.6482 85.7591 31.0025 85.5395 31.2717 85.2703C31.5409 84.9869 31.6755 84.6681 31.6755 84.3139C31.6755 83.8888 31.548 83.5275 31.2929 83.2299C31.0379 82.9324 30.6482 82.6844 30.124 82.486C29.5997 82.2735 28.9338 82.1106 28.1262 81.9972C27.361 81.8839 26.688 81.7138 26.1071 81.4871C25.5261 81.2463 25.0373 80.9487 24.6406 80.5945C24.258 80.2261 23.9675 79.801 23.7692 79.3193C23.5708 78.8234 23.4716 78.2708 23.4716 77.6615C23.4716 76.7405 23.7054 75.9541 24.173 75.3023C24.6547 74.6506 25.2994 74.1547 26.1071 73.8146C26.9147 73.4745 27.8073 73.3045 28.785 73.3045C29.706 73.3045 30.5561 73.4462 31.3354 73.7296C32.1289 73.9988 32.7736 74.3459 33.2695 74.771C33.6804 75.0969 33.8859 75.4724 33.8859 75.8974C33.8859 76.2092 33.7654 76.4925 33.5246 76.7476C33.2837 77.0026 33.0003 77.1302 32.6744 77.1302C32.4619 77.1302 32.2706 77.0664 32.1006 76.9389C31.8739 76.7405 31.5692 76.5563 31.1867 76.3863C30.8041 76.2021 30.4003 76.0533 29.9752 75.94C29.5501 75.8124 29.1534 75.7487 28.785 75.7487C28.1757 75.7487 27.6586 75.8266 27.2335 75.9825C26.8226 76.1383 26.5109 76.3509 26.2983 76.6201C26.0858 76.8893 25.9795 77.201 25.9795 77.5552C25.9795 77.9803 26.1 78.3345 26.3409 78.6179C26.5959 78.8871 26.9572 79.1067 27.4248 79.2768C27.8924 79.4326 28.452 79.5743 29.1038 79.7018C29.954 79.8577 30.6978 80.0419 31.3354 80.2544C31.9872 80.467 32.5256 80.7433 32.9507 81.0833C33.3758 81.4092 33.6946 81.8272 33.9071 82.3373C34.1197 82.8332 34.2259 83.4425 34.2259 84.1651C34.2259 85.0861 33.9709 85.8795 33.4608 86.5455C32.9507 87.2114 32.2777 87.7215 31.4417 88.0757C30.6199 88.43 29.7273 88.6071 28.7638 88.6071ZM41.7004 88.3945C41.3036 88.3945 40.9777 88.2741 40.7227 88.0332C40.4677 87.7782 40.3401 87.4665 40.3401 87.0981V74.771H43.1031V87.0981C43.1031 87.4665 42.9685 87.7782 42.6993 88.0332C42.4442 88.2741 42.1113 88.3945 41.7004 88.3945ZM37.0033 75.9612C36.6349 75.9612 36.3232 75.8479 36.0682 75.6212C35.8273 75.3944 35.7069 75.0969 35.7069 74.7285C35.7069 74.3601 35.8273 74.0696 36.0682 73.8571C36.3232 73.6304 36.6349 73.5171 37.0033 73.5171H46.4399C46.8083 73.5171 47.1129 73.6304 47.3538 73.8571C47.6088 74.0838 47.7364 74.3814 47.7364 74.7498C47.7364 75.1182 47.6088 75.4157 47.3538 75.6424C47.1129 75.8549 46.8083 75.9612 46.4399 75.9612H37.0033ZM58.1714 85.9079C58.5397 85.9079 58.8444 86.0283 59.0853 86.2692C59.3403 86.4959 59.4678 86.7934 59.4678 87.1618C59.4678 87.5161 59.3403 87.8136 59.0853 88.0545C58.8444 88.2812 58.5397 88.3945 58.1714 88.3945H51.264C50.8956 88.3945 50.5838 88.2741 50.3288 88.0332C50.0879 87.7782 49.9675 87.4665 49.9675 87.0981V74.8135C49.9675 74.4451 50.095 74.1405 50.35 73.8996C50.6051 73.6446 50.931 73.5171 51.3277 73.5171C51.6678 73.5171 51.9653 73.6446 52.2204 73.8996C52.4896 74.1405 52.6242 74.4451 52.6242 74.8135V86.2692L52.1566 85.9079H58.1714Z" fill="#FCFCFF"/>
</svg>
