<svg width="22" height="22" viewBox="0 0 22 22" fill="none" xmlns="http://www.w3.org/2000/svg">
<path d="M5.599 18.334H3.66667C3.42355 18.334 3.19039 18.4306 3.01849 18.6025C2.84658 18.7744 2.75 19.0075 2.75 19.2507C2.75 19.4938 2.84658 19.7269 3.01849 19.8988C3.19039 20.0707 3.42355 20.1673 3.66667 20.1673H18.3333C18.5764 20.1673 18.8096 20.0707 18.9815 19.8988C19.1534 19.7269 19.25 19.4938 19.25 19.2507C19.25 19.0075 19.1534 18.7744 18.9815 18.6025C18.8096 18.4306 18.5764 18.334 18.3333 18.334H16.401C16.1746 15.7912 15.4193 11.3582 12.8938 10.084C15.2442 8.77957 16.0591 5.67482 16.3442 3.66732H18.3333C18.5764 3.66732 18.8096 3.57074 18.9815 3.39883C19.1534 3.22692 19.25 2.99377 19.25 2.75065C19.25 2.50754 19.1534 2.27438 18.9815 2.10247C18.8096 1.93056 18.5764 1.83398 18.3333 1.83398H3.66667C3.42355 1.83398 3.19039 1.93056 3.01849 2.10247C2.84658 2.27438 2.75 2.50754 2.75 2.75065C2.75 2.99377 2.84658 3.22692 3.01849 3.39883C3.19039 3.57074 3.42355 3.66732 3.66667 3.66732H5.65583C5.94092 5.67482 6.75583 8.77957 9.10617 10.084C6.58075 11.3582 5.82542 15.7912 5.599 18.334ZM8.25 15.2173C8.25 14.1173 11 11.9173 11 11.9173C11 11.9173 13.75 14.1173 13.75 15.2173V18.334H8.25V15.2173Z" fill="white"/>
</svg>
