<svg width="110" height="110" viewBox="0 0 110 110" fill="none" xmlns="http://www.w3.org/2000/svg">
<rect width="110" height="110" fill="white"/>
<path d="M40.8808 5H70.1221C71.0915 5 72.0213 5.3851 72.7067 6.07058C73.3922 6.75605 73.7773 7.68576 73.7773 8.65517V35.1734H37.2256V8.65517C37.2256 7.68576 37.6107 6.75605 38.2962 6.07058C38.9816 5.3851 39.9113 5 40.8808 5Z" stroke="#204B66" stroke-width="7.3143" stroke-miterlimit="10"/>
<path d="M74.6897 35.207H36.3103C32.273 35.207 29 38.48 29 42.5174V98.2588C29 102.296 32.273 105.569 36.3103 105.569H74.6897C78.727 105.569 82 102.296 82 98.2588V42.5174C82 38.48 78.727 35.207 74.6897 35.207Z" stroke="#204B66" stroke-width="7.3143" stroke-miterlimit="10"/>
<path d="M48.8105 18.502V21.7002" stroke="#204B66" stroke-width="6.23816" stroke-linecap="round" stroke-linejoin="round"/>
<path d="M62.0605 18.502V21.7002" stroke="#204B66" stroke-width="6.23816" stroke-linecap="round" stroke-linejoin="round"/>
<path d="M60.9072 62.323V69.6009H62.7266V73.2398H57.2682V58.6841H60.9072L55.4488 51.4062L49.9904 58.6841H53.6293V73.2398H48.1709V69.4735C49.4445 68.8003 50.3543 67.5085 50.3543 65.962C50.3543 63.7604 48.553 61.9591 46.3515 61.9591C44.1499 61.9591 42.3486 63.7604 42.3486 65.962C42.3486 67.5085 43.2584 68.8003 44.532 69.4735V73.2398C44.532 75.2594 46.1513 76.8787 48.1709 76.8787H53.6293V82.4281C52.3375 83.1013 51.446 84.4295 51.446 85.9761C51.446 88.1958 53.2472 89.9789 55.4488 89.9789C57.6503 89.9789 59.4516 88.1958 59.4516 85.9761C59.4516 84.4295 58.5601 83.1013 57.2682 82.4281V76.8787H62.7266C64.7462 76.8787 66.3656 75.2594 66.3656 73.2398V69.6009H68.185V62.323H60.9072Z" fill="#204B66"/>
</svg>
