<svg width="22" height="22" viewBox="0 0 22 22" fill="none" xmlns="http://www.w3.org/2000/svg">
<g clip-path="url(#clip0_1355_5910)">
<path d="M21.9261 19.1574L18.788 6.60491C18.6248 5.95222 18.0816 5.49976 17.4616 5.49976H14.8727C15.0261 5.06792 15.1254 4.60944 15.1254 4.12476C15.1254 1.84655 13.2786 -0.000244141 11.0004 -0.000244141C8.72219 -0.000244141 6.87539 1.84655 6.87539 4.12476C6.87539 4.60944 6.97422 5.06792 7.12805 5.49976H4.53918C3.91914 5.49976 3.37559 5.95265 3.21274 6.60491L0.0738703 19.1574C-0.284059 20.5887 0.703792 21.9993 2.06375 21.9993H19.9366C21.2961 21.9993 22.284 20.5887 21.9261 19.1574ZM11 5.49933C10.242 5.49933 9.62496 4.8823 9.62496 4.12433C9.62496 3.36636 10.242 2.74933 11 2.74933C11.7579 2.74933 12.375 3.36636 12.375 4.12433C12.375 4.8823 11.7579 5.49933 11 5.49933Z" fill="white"/>
</g>
<defs>
<clipPath id="clip0_1355_5910">
<rect width="22" height="22" fill="white"/>
</clipPath>
</defs>
</svg>
